<?xml version="1.0" encoding="UTF-8"?>
<svg version="1.1" xmlns="http://www.w3.org/2000/svg" width="1024" height="1024">
<path d="M0 0 C337.92 0 675.84 0 1024 0 C1024 337.92 1024 675.84 1024 1024 C686.08 1024 348.16 1024 0 1024 C0 686.08 0 348.16 0 0 Z " fill="#000000" transform="translate(0,0)"/>
<path d="M0 0 C1.06300323 0.00109772 2.12600647 0.00219543 3.22122192 0.00332642 C21.97952147 0.05861611 39.96726109 1.54582505 58.3125 5.5 C59.65465576 5.78834717 59.65465576 5.78834717 61.02392578 6.08251953 C66.23107437 7.25941294 71.26008201 8.78523348 76.3125 10.5 C77.22273926 10.7985791 78.13297852 11.0971582 79.07080078 11.40478516 C107.53602646 20.80967716 133.74432832 33.90654719 157.3125 52.5 C158.11171875 53.10714844 158.9109375 53.71429688 159.734375 54.33984375 C183.55533618 72.75048858 202.74672891 95.85331631 218.3125 121.5 C218.94816895 122.54462402 218.94816895 122.54462402 219.59667969 123.61035156 C250.67678505 175.37867464 260.6935158 240.94176085 246.5 299.625 C245.48749477 303.59795855 244.41216725 307.55039562 243.3125 311.5 C242.9427002 312.87285156 242.9427002 312.87285156 242.56542969 314.2734375 C239.6936293 324.88410558 236.23501834 334.8358621 231.25537109 344.640625 C230.25325658 346.61683011 229.27558223 348.60394043 228.30078125 350.59375 C226.63206418 353.98814918 224.93242897 357.36547049 223.21191406 360.73388672 C222.44174435 362.24621237 221.68440545 363.7650605 220.9296875 365.28515625 C213.38460941 379.90092129 203.29953984 393.31037871 192.3125 405.5 C191.86165039 406.0057959 191.41080078 406.5115918 190.94628906 407.03271484 C181.14085589 418.01772283 170.99333476 428.48294669 159.3125 437.5 C158.77705566 437.91717285 158.24161133 438.3343457 157.68994141 438.76416016 C147.11974361 446.95037647 135.89281566 453.84247095 124.3125 460.5 C123.65813965 460.88285156 123.0037793 461.26570313 122.32958984 461.66015625 C111.75419909 467.8184821 100.53398363 472.20437855 89.08227539 476.46728516 C87.26129446 477.14624059 85.4451295 477.83828161 83.63452148 478.54443359 C76.50812327 481.26696521 69.3283126 483.03417439 61.875 484.625 C60.73740234 484.87636719 59.59980469 485.12773438 58.42773438 485.38671875 C40.62312494 489.26655948 23.60947177 490.71315225 5.4375 490.6875 C4.05990509 490.68559662 4.05990509 490.68559662 2.65447998 490.68365479 C-35.03868867 490.58414844 -71.81559677 483.82317554 -105.6875 466.5 C-107.34072266 465.72462891 -107.34072266 465.72462891 -109.02734375 464.93359375 C-123.89712251 457.86491312 -137.8121253 448.73667145 -150.6875 438.5 C-151.595 437.78457031 -152.5025 437.06914063 -153.4375 436.33203125 C-191.28739033 405.9553437 -219.71585217 365.80789489 -234.6875 319.5 C-234.9148584 318.80519531 -235.1422168 318.11039063 -235.37646484 317.39453125 C-237.0555642 312.14934468 -238.405222 306.85419815 -239.6875 301.5 C-239.91743652 300.60522949 -240.14737305 299.71045898 -240.38427734 298.78857422 C-244.62159727 281.83068792 -245.14714809 265.27479774 -245.125 247.875 C-245.12513092 246.8039502 -245.12526184 245.73290039 -245.12539673 244.62939453 C-245.08644162 226.85906285 -244.09783651 209.77381801 -239.6875 192.5 C-239.36639924 191.05674016 -239.04894373 189.61266636 -238.734375 188.16796875 C-225.01679902 126.9301399 -183.94788409 71.87787459 -131.3125 38.3125 C-115.80585215 28.64786222 -99.84042202 20.78940474 -82.6875 14.5 C-81.93114258 14.22172363 -81.17478516 13.94344727 -80.39550781 13.65673828 C-71.82747921 10.55012485 -63.16435339 7.98028399 -54.3125 5.8125 C-53.5481665 5.62212158 -52.78383301 5.43174316 -51.99633789 5.2355957 C-34.73764848 1.20111973 -17.68415152 -0.07557995 0 0 Z " fill="#050404" transform="translate(510.6875,259.5)"/>
<path d="M0 0 C1.1745241 45.44897613 -29.76706901 91.76043199 -59.59765625 123.7890625 C-65.35775166 129.68608569 -71.55387497 134.87495583 -78 140 C-79.11375 140.94939453 -79.11375 140.94939453 -80.25 141.91796875 C-98.93975938 157.65500573 -122.60563051 170.06734359 -146 177 C-146.68094727 177.2067334 -147.36189453 177.4134668 -148.06347656 177.62646484 C-162.82479461 182.04708773 -178.52044976 185.4017916 -194 185 C-193.98952637 185.59538574 -193.97905273 186.19077148 -193.96826172 186.80419922 C-193.92676051 189.49442343 -193.90069296 192.18458037 -193.875 194.875 C-193.84986328 196.28072266 -193.84986328 196.28072266 -193.82421875 197.71484375 C-193.81777344 198.61074219 -193.81132813 199.50664063 -193.8046875 200.4296875 C-193.79421387 201.25710449 -193.78374023 202.08452148 -193.77294922 202.93701172 C-194 205 -194 205 -196 207 C-199.36608357 207.05746972 -201.89143624 206.8469851 -204.63476562 204.75097656 C-206.42507453 202.93990095 -208.09000409 201.05634354 -209.75 199.125 C-211.13433461 197.58274744 -212.52408666 196.04534777 -213.91796875 194.51171875 C-214.70220215 193.64853027 -215.48643555 192.7853418 -216.29443359 191.89599609 C-222.29200639 185.4762877 -228.59858473 179.35142896 -234.84484863 173.17510986 C-258.07192611 150.19512896 -258.07192611 150.19512896 -258.3125 142.75 C-258.34988281 142.00234375 -258.38726562 141.2546875 -258.42578125 140.484375 C-257.11744626 132.8504204 -249.37012755 127.11674424 -244.16015625 121.96484375 C-243.19092124 120.99934718 -242.22213298 120.03340196 -241.25376892 119.06703186 C-238.71360655 116.53446765 -236.16750244 114.0079616 -233.62005615 111.48272705 C-231.03802675 108.92113615 -228.46161831 106.35390593 -225.88476562 103.78710938 C-221.30101813 99.2226168 -216.7143828 94.66106584 -212.11746216 90.10983276 C-210.40551609 88.40405498 -208.71821951 86.67925374 -207.03686523 84.94360352 C-204.63635981 82.65300977 -203.31792847 82 -200 82 C-197.87207031 83.15356445 -197.87207031 83.15356445 -196 85 C-195.54589844 87.54370117 -195.54589844 87.54370117 -195.609375 90.54296875 C-195.62226562 91.61611328 -195.63515625 92.68925781 -195.6484375 93.79492188 C-195.68195312 94.91447266 -195.71546875 96.03402344 -195.75 97.1875 C-195.76804687 98.31865234 -195.78609375 99.44980469 -195.8046875 100.61523438 C-195.85187348 103.41100376 -195.91769405 106.20507972 -196 109 C-194.948125 108.70996094 -194.948125 108.70996094 -193.875 108.4140625 C-189.51959421 107.21869298 -185.1696066 106.02573375 -180.77734375 104.97265625 C-155.60081632 98.48976553 -131.66225455 83.95925385 -115 64 C-113.96746094 62.83404297 -113.96746094 62.83404297 -112.9140625 61.64453125 C-103.57863306 50.81870869 -96.42000692 38.20770108 -91 25 C-87.53626888 26.56557402 -84.70876475 28.64270626 -81.6875 30.9375 C-71.64758555 38.20687301 -63.23770037 39.41213254 -50.93359375 37.53125 C-39.3928535 34.77329216 -31.42124901 27.91054385 -23.078125 19.90234375 C-21.06245858 17.9681862 -19.00188319 16.14681969 -16.8359375 14.3828125 C-14.41020721 12.34466446 -12.40338714 10.35522211 -10.375 7.9375 C-9.49714844 6.91462891 -9.49714844 6.91462891 -8.6015625 5.87109375 C-8.07304688 5.25363281 -7.54453125 4.63617187 -7 4 C-3.4 0 -3.4 0 0 0 Z " fill="#DC6B95" transform="translate(736,530)"/>
<path d="M0 0 C5.03871167 0.934905 7.43632051 3.94454822 10.90600586 7.55859375 C11.61338394 8.27208984 12.32076202 8.98558594 13.04957581 9.72070312 C15.309094 12.00714797 17.54670291 14.3138055 19.78491211 16.62109375 C21.2868324 18.14454637 22.79007447 19.6666971 24.29467773 21.1875 C30.27897691 27.26212869 36.1968991 33.33882768 41.75239563 39.81207275 C44.39269478 42.80662276 47.24232903 45.58318909 50.09741211 48.37109375 C59.78269841 57.83474879 59.78269841 57.83474879 59.97241211 63.87109375 C59.79386945 69.27022375 58.40382133 71.77502252 54.61694336 75.515625 C53.86799805 76.21042969 53.11905273 76.90523438 52.34741211 77.62109375 C50.95156264 79.02889057 49.55589824 80.43688209 48.16503906 81.84960938 C45.91285343 84.12733172 43.62746032 86.37131166 41.34741211 88.62109375 C38.03745146 91.91167482 34.76632751 95.23682455 31.51332092 98.58343506 C28.98801827 101.17590633 26.44915205 103.75492378 23.90966797 106.33349609 C22.57378842 107.69465477 21.24241206 109.06024731 19.91552734 110.43017578 C17.98920008 112.41718413 16.04713612 114.38756639 14.10131836 116.35546875 C13.51363174 116.96896179 12.92594513 117.58245483 12.32044983 118.21453857 C9.64051704 120.89626582 7.78961319 122.46195173 4.17529297 123.76269531 C1.34741211 123.62109375 1.34741211 123.62109375 -1.00317383 122.02246094 C-2.98417477 119.13833938 -3.12032968 117.6694742 -3.04321289 114.19921875 C-3.03032227 113.17441406 -3.01743164 112.14960938 -3.00415039 111.09375 C-2.95387695 109.49853516 -2.95387695 109.49853516 -2.90258789 107.87109375 C-2.88454102 106.79214844 -2.86649414 105.71320313 -2.84790039 104.6015625 C-2.80080204 101.94050587 -2.73504389 99.28125121 -2.65258789 96.62109375 C-38.71020557 103.64262297 -69.62213424 122.7102205 -91.21508789 152.74609375 C-97.25897331 161.71513367 -102.86413698 171.46566514 -106.65258789 181.62109375 C-109.81120837 180.174288 -112.34614726 178.36535987 -115.09008789 176.24609375 C-123.00698921 170.65288471 -132.88854289 167.19863396 -142.65258789 168.62109375 C-158.26678092 171.66837981 -168.83080922 182.61044743 -179.50024414 193.59375 C-180.34981689 194.46233643 -181.19938965 195.33092285 -182.07470703 196.22583008 C-183.77999064 197.97568782 -185.47345887 199.73714588 -187.15429688 201.51049805 C-188.32907593 202.71766479 -188.32907593 202.71766479 -189.52758789 203.94921875 C-190.22625977 204.68043945 -190.92493164 205.41166016 -191.64477539 206.16503906 C-193.65258789 207.62109375 -193.65258789 207.62109375 -195.91040039 207.35058594 C-196.48532227 207.10985352 -197.06024414 206.86912109 -197.65258789 206.62109375 C-197.91251538 200.77666358 -196.98284409 195.66191069 -195.59008789 189.99609375 C-195.25291748 188.61901245 -195.25291748 188.61901245 -194.90893555 187.21411133 C-188.46904088 161.65291805 -178.31285214 137.57362228 -163.65258789 115.62109375 C-163.23654297 114.99557617 -162.82049805 114.37005859 -162.3918457 113.72558594 C-138.94135968 78.85670308 -106.24080912 52.13306252 -67.65258789 35.62109375 C-66.98485352 35.33153809 -66.31711914 35.04198242 -65.62915039 34.74365234 C-46.55194852 26.60806851 -26.13497576 23.7869296 -5.65258789 21.62109375 C-5.57911133 19.72423828 -5.57911133 19.72423828 -5.50415039 17.7890625 C-5.42911409 16.12888428 -5.35356663 14.46872911 -5.27758789 12.80859375 C-5.24665039 11.97521484 -5.21571289 11.14183594 -5.18383789 10.28320312 C-5.12583008 9.07954102 -5.12583008 9.07954102 -5.06665039 7.8515625 C-5.03522949 7.11317139 -5.00380859 6.37478027 -4.97143555 5.61401367 C-4.41819449 2.15604523 -3.39126823 0.79405305 0 0 Z " fill="#2FCCA1" transform="translate(492.652587890625,280.37890625)"/>
<path d="M0 0 C25.42743799 2.46399749 49.63215185 11.95982732 72 24 C72.93972656 24.47566406 73.87945313 24.95132812 74.84765625 25.44140625 C120.24539263 48.90916099 156.11017723 93.1392773 172.16650391 141.37402344 C176.50253478 155.03493382 179.79647639 168.7029695 181 183 C181.55985596 183.01458252 182.11971191 183.02916504 182.6965332 183.04418945 C185.23588137 183.11871352 187.77392078 183.21535581 190.3125 183.3125 C191.63411133 183.34633789 191.63411133 183.34633789 192.98242188 183.38085938 C193.82998047 183.41630859 194.67753906 183.45175781 195.55078125 183.48828125 C196.72120972 183.52755737 196.72120972 183.52755737 197.9152832 183.56762695 C200.56210169 184.11658064 201.47230581 184.77393132 203 187 C203.34382629 189.30735779 203.34382629 189.30735779 203 192 C201.23156738 194.37643433 201.23156738 194.37643433 198.72070312 196.86279297 C198.26538208 197.32045044 197.81006104 197.77810791 197.34094238 198.24963379 C195.83275059 199.75943988 194.30748838 201.25064443 192.78125 202.7421875 C191.72322343 203.79341844 190.66623164 204.84569177 189.61022949 205.8989563 C186.82300584 208.67276005 184.02067429 211.43081866 181.21533203 214.1862793 C178.94680872 216.41960918 176.68928814 218.663875 174.43231964 220.9088726 C171.71911274 223.60716635 169.00083625 226.30032523 166.28125 228.9921875 C165.77106827 229.49745846 165.26088654 230.00272942 164.73524475 230.52331161 C145.41333857 249.62763579 145.41333857 249.62763579 138.5625 250.375 C132.01775526 249.6860795 127.88059481 246.32909568 123.36181641 241.79760742 C122.83424744 241.28011429 122.30667847 240.76262115 121.76312256 240.22944641 C120.03464842 238.52929708 118.31754644 236.81821772 116.6015625 235.10546875 C115.39966319 233.91321647 114.19754181 232.72118801 112.99520874 231.52937317 C110.4834741 229.03555764 107.97797365 226.53566295 105.47607422 224.03198242 C102.2698189 220.82542139 99.04337326 217.64004091 95.81130409 214.45952892 C93.32521566 212.00678432 90.85287052 209.54053705 88.38419724 207.07027626 C87.20007364 205.8896913 86.01108551 204.71396456 84.81718826 203.54326439 C83.15079396 201.9062613 81.504486 200.25133874 79.86181641 198.59057617 C79.3663028 198.11192108 78.87078918 197.63326599 78.36026001 197.1401062 C75.95111705 194.66294481 75.03204019 193.24089421 74.57113647 189.77558899 C75 187 75 187 77 185 C79.43017578 184.77294922 79.43017578 184.77294922 82.4453125 184.8046875 C84.05986328 184.81435547 84.05986328 184.81435547 85.70703125 184.82421875 C86.83496094 184.84097656 87.96289062 184.85773438 89.125 184.875 C90.26066406 184.88402344 91.39632812 184.89304687 92.56640625 184.90234375 C95.37781299 184.92596902 98.18880298 184.95890987 101 185 C93.72075439 151.56595348 75.7523605 122.13167966 47 103 C38.37874327 97.60687235 29.37047611 92.95068802 20 89 C21.47257926 85.8142716 23.2944232 83.13354409 25.375 80.3125 C26.59514543 78.54978469 27.8040756 76.77923719 29 75 C29.44472656 74.34515625 29.88945313 73.6903125 30.34765625 73.015625 C34.90020778 64.85693051 34.33459382 53.07240188 32.375 44.15625 C31.45331447 41.88495352 30.37922155 40.02548536 29 38 C28.48695313 37.19304687 27.97390625 36.38609375 27.4453125 35.5546875 C19.91660702 24.47165755 10.12808136 14.51686939 0.16015625 5.61328125 C-0.22269531 5.08089844 -0.60554687 4.54851562 -1 4 C-0.57250977 1.89916992 -0.57250977 1.89916992 0 0 Z " fill="#E04173" transform="translate(544,294)"/>
<path d="M0 0 C0.81339844 -0.01933594 1.62679687 -0.03867187 2.46484375 -0.05859375 C8.23992075 1.04431569 12.45672707 5.57036352 16.51708984 9.56982422 C17.27918259 10.31702225 17.27918259 10.31702225 18.05667114 11.07931519 C19.71777263 12.7114553 21.37121294 14.35106464 23.0234375 15.9921875 C23.5916283 16.55472355 24.15981911 17.1172596 24.74522781 17.69684219 C27.74621487 20.66797396 30.74149933 23.64471312 33.73193359 26.62646484 C36.81882904 29.70234805 39.92387141 32.75921013 43.03349876 35.81208611 C45.42672891 38.16808493 47.80645271 40.53737774 50.18266678 42.91052628 C51.32199974 44.04381021 52.46632832 45.17209496 53.61570358 46.29519272 C55.21973014 47.8651067 56.80374686 49.45286777 58.38427734 51.04638672 C59.74279312 52.39396561 59.74279312 52.39396561 61.12875366 53.76876831 C63.43981733 56.95822948 63.56934462 58.58200495 63.0625 62.4375 C61.89526367 64.29418945 61.89526367 64.29418945 60.0625 65.4375 C57.6105957 65.77807617 57.6105957 65.77807617 54.73828125 65.73046875 C53.71025391 65.72080078 52.68222656 65.71113281 51.62304688 65.70117188 C50.55119141 65.67603516 49.47933594 65.65089844 48.375 65.625 C46.74981445 65.60469727 46.74981445 65.60469727 45.09179688 65.58398438 C42.41486595 65.54860643 39.73893162 65.49924189 37.0625 65.4375 C42.30019444 87.78716509 51.60938786 107.27331662 67.0625 124.4375 C67.80757812 125.26507812 68.55265625 126.09265625 69.3203125 126.9453125 C83.19899458 141.55686228 100.76775633 151.41455593 119.0625 159.4375 C117.68650437 162.51484984 116.07645144 164.63803841 113.75 167.0625 C104.91873749 176.88935369 103.22264502 187.43251297 103.84912109 200.19921875 C105.0431721 212.72445858 114.3764705 221.83227623 122.87109375 230.2109375 C123.73202637 231.06034912 124.59295898 231.90976074 125.47998047 232.78491211 C127.22934376 234.4979447 128.98998322 236.19954473 130.76220703 237.88891602 C131.98012939 239.07118774 131.98012939 239.07118774 133.22265625 240.27734375 C133.96136963 240.98238037 134.70008301 241.68741699 135.46118164 242.41381836 C137.0625 244.4375 137.0625 244.4375 137.0625 248.4375 C129.91940457 248.86677256 123.89418768 247.30975759 117.0625 245.3125 C115.95253662 244.99337646 114.84257324 244.67425293 113.69897461 244.34545898 C104.96824649 241.79267759 96.45309791 238.94671576 88.0625 235.4375 C87.35077637 235.14262695 86.63905273 234.84775391 85.90576172 234.54394531 C36.82877488 214.01987498 -5.95886076 175.74231267 -26.83886719 126.17382812 C-34.53664146 107.00123834 -41.49728674 86.34431798 -40.9375 65.4375 C-41.59347168 65.45321045 -42.24944336 65.4689209 -42.92529297 65.48510742 C-45.88760816 65.54733652 -48.8497861 65.58645168 -51.8125 65.625 C-52.84503906 65.65013672 -53.87757813 65.67527344 -54.94140625 65.70117188 C-56.42060547 65.71567383 -56.42060547 65.71567383 -57.9296875 65.73046875 C-58.84089355 65.7461792 -59.75209961 65.76188965 -60.69091797 65.77807617 C-61.43229004 65.66568604 -62.17366211 65.5532959 -62.9375 65.4375 C-64.9375 62.4375 -64.9375 62.4375 -64.87445068 60.09231567 C-63.64491654 56.60847541 -61.53285321 54.48810545 -58.94628906 51.96044922 C-58.168078 51.17654312 -58.168078 51.17654312 -57.37414551 50.37680054 C-55.66008402 48.65534241 -53.93206662 46.9486901 -52.203125 45.2421875 C-51.00510967 44.0465576 -49.80783405 42.85018609 -48.61126709 41.65310669 C-46.10212147 39.14708777 -43.58640548 36.64792535 -41.06542969 34.15380859 C-37.83946817 30.96178959 -34.62679186 27.7568002 -31.41852188 24.54701042 C-28.94665281 22.07568619 -26.46959726 19.6096168 -23.99077606 17.14526749 C-22.80469773 15.96553941 -21.61981443 14.78460859 -20.43616486 13.6024437 C-18.77782843 11.94846114 -17.11305942 10.30123935 -15.44628906 8.65576172 C-14.96089661 8.16946289 -14.47550415 7.68316406 -13.97540283 7.18212891 C-9.7418023 3.0270692 -6.08067299 0.00960612 0 0 Z " fill="#85487F" transform="translate(348.9375,473.5625)"/>
<path d="M0 0 C1.06300323 0.00109772 2.12600647 0.00219543 3.22122192 0.00332642 C21.97952147 0.05861611 39.96726109 1.54582505 58.3125 5.5 C59.65465576 5.78834717 59.65465576 5.78834717 61.02392578 6.08251953 C66.23107437 7.25941294 71.26008201 8.78523348 76.3125 10.5 C77.22273926 10.7985791 78.13297852 11.0971582 79.07080078 11.40478516 C107.53602646 20.80967716 133.74432832 33.90654719 157.3125 52.5 C158.11171875 53.10714844 158.9109375 53.71429688 159.734375 54.33984375 C183.55533618 72.75048858 202.74672891 95.85331631 218.3125 121.5 C218.94816895 122.54462402 218.94816895 122.54462402 219.59667969 123.61035156 C250.67678505 175.37867464 260.6935158 240.94176085 246.5 299.625 C245.48749477 303.59795855 244.41216725 307.55039562 243.3125 311.5 C242.9427002 312.87285156 242.9427002 312.87285156 242.56542969 314.2734375 C239.6936293 324.88410558 236.23501834 334.8358621 231.25537109 344.640625 C230.25325658 346.61683011 229.27558223 348.60394043 228.30078125 350.59375 C226.63206418 353.98814918 224.93242897 357.36547049 223.21191406 360.73388672 C222.44174435 362.24621237 221.68440545 363.7650605 220.9296875 365.28515625 C213.38460941 379.90092129 203.29953984 393.31037871 192.3125 405.5 C191.86165039 406.0057959 191.41080078 406.5115918 190.94628906 407.03271484 C181.14085589 418.01772283 170.99333476 428.48294669 159.3125 437.5 C158.77705566 437.91717285 158.24161133 438.3343457 157.68994141 438.76416016 C147.11974361 446.95037647 135.89281566 453.84247095 124.3125 460.5 C123.65813965 460.88285156 123.0037793 461.26570313 122.32958984 461.66015625 C111.75419909 467.8184821 100.53398363 472.20437855 89.08227539 476.46728516 C87.26129446 477.14624059 85.4451295 477.83828161 83.63452148 478.54443359 C76.50812327 481.26696521 69.3283126 483.03417439 61.875 484.625 C60.73740234 484.87636719 59.59980469 485.12773438 58.42773438 485.38671875 C40.62312494 489.26655948 23.60947177 490.71315225 5.4375 490.6875 C4.05990509 490.68559662 4.05990509 490.68559662 2.65447998 490.68365479 C-35.03868867 490.58414844 -71.81559677 483.82317554 -105.6875 466.5 C-107.34072266 465.72462891 -107.34072266 465.72462891 -109.02734375 464.93359375 C-123.89712251 457.86491312 -137.8121253 448.73667145 -150.6875 438.5 C-151.595 437.78457031 -152.5025 437.06914063 -153.4375 436.33203125 C-191.28739033 405.9553437 -219.71585217 365.80789489 -234.6875 319.5 C-234.9148584 318.80519531 -235.1422168 318.11039063 -235.37646484 317.39453125 C-237.0555642 312.14934468 -238.405222 306.85419815 -239.6875 301.5 C-239.91743652 300.60522949 -240.14737305 299.71045898 -240.38427734 298.78857422 C-244.62159727 281.83068792 -245.14714809 265.27479774 -245.125 247.875 C-245.12513092 246.8039502 -245.12526184 245.73290039 -245.12539673 244.62939453 C-245.08644162 226.85906285 -244.09783651 209.77381801 -239.6875 192.5 C-239.36639924 191.05674016 -239.04894373 189.61266636 -238.734375 188.16796875 C-225.01679902 126.9301399 -183.94788409 71.87787459 -131.3125 38.3125 C-115.80585215 28.64786222 -99.84042202 20.78940474 -82.6875 14.5 C-81.93114258 14.22172363 -81.17478516 13.94344727 -80.39550781 13.65673828 C-71.82747921 10.55012485 -63.16435339 7.98028399 -54.3125 5.8125 C-53.5481665 5.62212158 -52.78383301 5.43174316 -51.99633789 5.2355957 C-34.73764848 1.20111973 -17.68415152 -0.07557995 0 0 Z M-43.6875 14.5 C-44.57953125 14.68191895 -45.4715625 14.86383789 -46.390625 15.05126953 C-91.89827048 24.35738344 -131.13810023 46.75205954 -164.6875 78.5 C-166.08162109 79.81291016 -166.08162109 79.81291016 -167.50390625 81.15234375 C-174.1032638 87.54517802 -179.80900859 94.35880776 -185.31689453 101.68505859 C-186.66206405 103.46631798 -188.03019526 105.22776088 -189.40234375 106.98828125 C-210.06942471 133.8751553 -223.15441869 165.63172711 -230.6875 198.5 C-230.9035791 199.44149902 -231.1196582 200.38299805 -231.34228516 201.35302734 C-234.39469389 215.33010148 -235.05330986 229.12415875 -235.0625 243.375 C-235.06449402 244.18445068 -235.06648804 244.99390137 -235.06854248 245.82788086 C-235.05270757 302.53989133 -215.13621495 355.9874651 -177.6875 398.5 C-177.07390625 399.22445313 -176.4603125 399.94890625 -175.828125 400.6953125 C-167.65268362 410.31118879 -158.57516 418.68252357 -148.6875 426.5 C-147.89988281 427.15484375 -147.11226563 427.8096875 -146.30078125 428.484375 C-126.39594746 444.93465086 -102.85674823 457.57540947 -78.6875 466.5 C-78.04216309 466.74459961 -77.39682617 466.98919922 -76.73193359 467.24121094 C-66.8061486 470.96549913 -56.72949533 473.55507654 -46.375 475.8125 C-44.64117065 476.19438477 -44.64117065 476.19438477 -42.87231445 476.58398438 C-36.05563618 478.01139807 -29.39619638 478.89589272 -22.44067383 479.27807617 C-19.6875 479.5 -19.6875 479.5 -17.77606201 480.00479126 C-15.61612064 480.51692441 -13.73408012 480.63336976 -11.51733398 480.64526367 C-10.70646835 480.65164352 -9.89560272 480.65802338 -9.06016541 480.66459656 C-8.19339676 480.66570938 -7.32662811 480.6668222 -6.43359375 480.66796875 C-5.53633072 480.67129715 -4.63906769 480.67462555 -3.71461487 480.67805481 C-1.82089754 480.68311032 0.07282867 480.68546356 1.96655273 480.68530273 C4.8678238 480.68749458 7.76871779 480.70567939 10.66992188 480.72460938 C12.51041537 480.72754247 14.35091066 480.72952783 16.19140625 480.73046875 C17.49459557 480.74124702 17.49459557 480.74124702 18.82411194 480.75224304 C20.03568214 480.7476281 20.03568214 480.7476281 21.27172852 480.74291992 C21.98136246 480.74434494 22.6909964 480.74576996 23.4221344 480.74723816 C25.64397149 480.59832232 25.64397149 480.59832232 28.3125 478.5 C30.44921875 478.41015625 30.44921875 478.41015625 33 478.5625 C40.65244484 478.67224823 47.88966674 477.17720178 55.3125 475.5 C56.60559082 475.20996094 56.60559082 475.20996094 57.92480469 474.9140625 C72.71745948 471.51610422 86.45980758 466.66688414 100.3125 460.5 C101.1267041 460.14566895 101.9409082 459.79133789 102.77978516 459.42626953 C120.49808213 451.68105922 137.27210812 441.67862919 152.3125 429.5 C153.80330078 428.31277344 153.80330078 428.31277344 155.32421875 427.1015625 C168.54145057 416.37435542 181.10701923 404.13709602 191.3125 390.5 C191.79638184 389.8601416 192.28026367 389.2202832 192.77880859 388.56103516 C213.8881643 360.52847745 230.49415211 328.31736419 236.92724609 293.56884766 C237.31974357 291.4611014 237.74452586 289.36185024 238.17578125 287.26171875 C245.24715063 251.94983429 242.87244056 213.79295951 232.3125 179.5 C231.80501122 177.54359396 231.30400887 175.5854817 230.8125 173.625 C215.5625806 118.42692218 171.70793424 69.92703019 122.96728516 41.96044922 C99.67301358 29.14581499 74.81317006 19.12631651 48.55566406 14.61425781 C46.41519494 14.24616423 44.27792429 13.86259881 42.140625 13.4765625 C14.02707313 8.45514727 -15.76159049 8.39622272 -43.6875 14.5 Z " fill="#145350" transform="translate(510.6875,259.5)"/>
<path d="M0 0 C1.10794922 -0.05994141 1.10794922 -0.05994141 2.23828125 -0.12109375 C8.89655772 1.39746053 12.60397359 7.7386847 16.0625 13.125 C16.51238281 13.80111328 16.96226562 14.47722656 17.42578125 15.17382812 C20.6875 20.1556326 20.6875 20.1556326 20.6875 22.4375 C21.3475 22.4375 22.0075 22.4375 22.6875 22.4375 C22.93886719 23.13230469 23.19023438 23.82710938 23.44921875 24.54296875 C24.85724523 27.83428618 26.59989557 30.71637248 28.5 33.75 C28.85674805 34.32468018 29.21349609 34.89936035 29.58105469 35.49145508 C31.08882469 37.91582643 32.61412842 40.32600585 34.18359375 42.7109375 C36.89932936 46.85645291 38.83884328 50.97566936 40.5859375 55.61328125 C41.86051539 58.881082 43.30905312 62.05223366 44.75 65.25 C52.21819632 82.54377785 53.86291677 99.5974071 47.6875 117.4375 C42.32960016 129.59812661 34.49494107 138.78264745 22.03515625 143.953125 C18.61772211 145.2144465 15.16226141 146.34401201 11.6875 147.4375 C10.6975 147.7675 9.7075 148.0975 8.6875 148.4375 C-6.96977015 149.38092763 -20.78752206 147.19675096 -33.3046875 137 C-40.03403445 131.00249184 -45.06337779 126.03664594 -48 117.375 C-48.41636719 116.16714844 -48.83273437 114.95929688 -49.26171875 113.71484375 C-51.23588638 107.55749565 -51.52837975 102.20299315 -51.5625 95.75 C-51.583125 94.79416016 -51.60375 93.83832031 -51.625 92.85351562 C-51.65991701 86.45060908 -50.67867538 81.36700519 -48.3125 75.4375 C-47.9825 74.46425781 -47.6525 73.49101562 -47.3125 72.48828125 C-39.30229073 50.55407538 -27.05551524 30.54672106 -13.8125 11.4375 C-12.91277466 10.13594971 -12.91277466 10.13594971 -11.99487305 8.80810547 C-11.42937744 8.00518066 -10.86388184 7.20225586 -10.28125 6.375 C-9.78044922 5.66214844 -9.27964844 4.94929688 -8.76367188 4.21484375 C-6.1847727 1.05629968 -3.94097212 0.11571075 0 0 Z " fill="#EEBFC9" transform="translate(515.3125,432.5625)"/>
<path d="M0 0 C0.33 0.99 0.66 1.98 1 3 C-0.30720191 5.36031071 -1.64815081 7.4847989 -3.1875 9.6875 C-3.86655396 10.6784668 -3.86655396 10.6784668 -4.55932617 11.68945312 C-20.47612242 34.70900782 -38.5711503 57.00655399 -61 74 C-61.52819336 74.40992188 -62.05638672 74.81984375 -62.60058594 75.2421875 C-91.88486875 97.93121349 -126.75662868 114.23103169 -163 122 C-163.88961426 122.19464844 -164.77922852 122.38929688 -165.69580078 122.58984375 C-189.55953355 127.61292353 -213.8110541 126.71984234 -238 125 C-238 126.98 -238 128.96 -238 131 C-238.33 131 -238.66 131 -239 131 C-239.10985087 129.62686409 -239.18641991 128.25105487 -239.25 126.875 C-239.29640625 126.10929688 -239.3428125 125.34359375 -239.390625 124.5546875 C-238.21864427 116.88993351 -230.36233778 111.1090413 -225.16015625 105.96484375 C-224.19092124 104.99934718 -223.22213298 104.03340196 -222.25376892 103.06703186 C-219.71360655 100.53446765 -217.16750244 98.0079616 -214.62005615 95.48272705 C-212.03802675 92.92113615 -209.46161831 90.35390593 -206.88476562 87.78710938 C-202.30101813 83.2226168 -197.7143828 78.66106584 -193.11746216 74.10983276 C-191.40551609 72.40405498 -189.71821951 70.67925374 -188.03686523 68.94360352 C-185.63635981 66.65300977 -184.31792847 66 -181 66 C-178.87207031 67.15356445 -178.87207031 67.15356445 -177 69 C-176.54589844 71.54370117 -176.54589844 71.54370117 -176.609375 74.54296875 C-176.62226562 75.61611328 -176.63515625 76.68925781 -176.6484375 77.79492188 C-176.68195312 78.91447266 -176.71546875 80.03402344 -176.75 81.1875 C-176.76804687 82.31865234 -176.78609375 83.44980469 -176.8046875 84.61523438 C-176.85187348 87.41100376 -176.91769405 90.20507972 -177 93 C-175.948125 92.70996094 -175.948125 92.70996094 -174.875 92.4140625 C-170.51959421 91.21869298 -166.1696066 90.02573375 -161.77734375 88.97265625 C-136.60081632 82.48976553 -112.66225455 67.95925385 -96 48 C-94.96746094 46.83404297 -94.96746094 46.83404297 -93.9140625 45.64453125 C-84.57863306 34.81870869 -77.42000692 22.20770108 -72 9 C-68.53626888 10.56557402 -65.70876475 12.64270626 -62.6875 14.9375 C-52.64758555 22.20687301 -44.23770037 23.41213254 -31.93359375 21.53125 C-18.63228854 18.35255971 -9.39395922 9.39395922 0 0 Z " fill="#B22B68" transform="translate(717,546)"/>
<path d="M0 0 C-0.50901376 4.19981961 -1.62060434 6.10492926 -4.640625 9.03125 C-5.38183594 9.75957031 -6.12304688 10.48789062 -6.88671875 11.23828125 C-8.05654297 12.35783203 -8.05654297 12.35783203 -9.25 13.5 C-10.01441406 14.24636719 -10.77882813 14.99273437 -11.56640625 15.76171875 C-13.00228676 17.16288022 -14.44225441 18.55987504 -15.88769531 19.95117188 C-19.94256699 23.88419119 -23.89710007 27.91206489 -27.83409119 31.96234131 C-30.35939384 34.55481258 -32.89826006 37.13383003 -35.43774414 39.71240234 C-36.77362369 41.07356102 -38.10500005 42.43915356 -39.43188477 43.80908203 C-41.35821203 45.79609038 -43.30027599 47.76647264 -45.24609375 49.734375 C-45.83378036 50.34786804 -46.42146698 50.96136108 -47.02696228 51.59344482 C-49.70689507 54.27517207 -51.55779892 55.84085798 -55.17211914 57.14160156 C-58 57 -58 57 -60.35058594 55.40136719 C-62.33158688 52.51724563 -62.46774179 51.04838045 -62.390625 47.578125 C-62.37773437 46.55332031 -62.36484375 45.52851563 -62.3515625 44.47265625 C-62.30128906 42.87744141 -62.30128906 42.87744141 -62.25 41.25 C-62.23195313 40.17105469 -62.21390625 39.09210938 -62.1953125 37.98046875 C-62.14821415 35.31941212 -62.082456 32.66015746 -62 30 C-98.05761768 37.02152922 -128.96954635 56.08912675 -150.5625 86.125 C-156.60638542 95.09403992 -162.21154909 104.84457139 -166 115 C-169.15862048 113.55319425 -171.69355937 111.74426612 -174.4375 109.625 C-182.35440132 104.03179096 -192.235955 100.57754021 -202 102 C-214.03903609 104.34955382 -222.55610322 111.13960346 -231.21484375 119.36328125 C-234.38496525 122.36444816 -237.6599397 125.19131293 -241 128 C-239.39637976 123.22600412 -236.74354464 119.45540784 -233.875 115.375 C-233.38 114.66496826 -232.885 113.95493652 -232.375 113.22338867 C-230.92214095 111.14501923 -229.46159389 109.07223145 -228 107 C-227.30132812 105.99839844 -226.60265625 104.99679687 -225.8828125 103.96484375 C-221.46820852 97.74593067 -216.65947241 91.94780629 -211.69140625 86.171875 C-208.5131452 82.4625828 -205.52544391 78.61019588 -202.55859375 74.73046875 C-202.04425781 74.15941406 -201.52992188 73.58835937 -201 73 C-200.34 73 -199.68 73 -199 73 C-199 72.34 -199 71.68 -199 71 C-198.34 71 -197.68 71 -197 71 C-196.67322266 70.17048828 -196.67322266 70.17048828 -196.33984375 69.32421875 C-194.57433251 66.26159722 -192.17526972 64.13532651 -189.5625 61.8125 C-189.02536377 61.32910156 -188.48822754 60.84570312 -187.93481445 60.34765625 C-159.27555552 34.74173497 -126.24176944 15.04581679 -89 5 C-88.32291992 4.81695312 -87.64583984 4.63390625 -86.94824219 4.4453125 C-82.95470434 3.37882344 -78.94941541 2.38593234 -74.92236328 1.45410156 C-73.10696076 1.02526632 -71.30105299 0.55679643 -69.49609375 0.0859375 C-47.11699525 -5.08032688 -22.64466943 -2.07617549 0 0 Z " fill="#14A07E" transform="translate(552,347)"/>
<path d="M0 0 C4.71086081 1.55834559 8.21656426 4.16984127 12.125 7.125 C13.46976574 8.12928979 14.81481953 9.13319397 16.16015625 10.13671875 C16.8164502 10.62833496 17.47274414 11.11995117 18.14892578 11.62646484 C20.59091572 13.43847162 23.0782138 15.18410335 25.5625 16.9375 C44.94377977 31.12584536 62.9471762 48.50965141 77 68 C77.82777507 69.10020322 78.65722712 70.19914656 79.48828125 71.296875 C107.46423751 108.7321709 124.39992741 156.5699677 124.09765625 203.5078125 C124.0962413 204.35930878 124.09482635 205.21080505 124.09336853 206.08810425 C124.08783919 208.76710759 124.07530074 211.44602257 124.0625 214.125 C124.05747584 215.95833211 124.05291455 217.79166556 124.04882812 219.625 C124.03789306 224.08336659 124.02067872 228.54166839 124 233 C125.98 233 127.96 233 130 233 C130 233.33 130 233.66 130 234 C123.25387162 234.4047677 119.37059059 233.02748806 114.22842407 228.62956238 C113.26542207 227.69319513 112.31025963 226.74871831 111.36181641 225.79760742 C110.83424744 225.28011429 110.30667847 224.76262115 109.76312256 224.22944641 C108.03464842 222.52929708 106.31754644 220.81821772 104.6015625 219.10546875 C103.39966319 217.91321647 102.19754181 216.72118801 100.99520874 215.52937317 C98.4834741 213.03555764 95.97797365 210.53566295 93.47607422 208.03198242 C90.2698189 204.82542139 87.04337326 201.64004091 83.81130409 198.45952892 C81.32521566 196.00678432 78.85287052 193.54053705 76.38419724 191.07027626 C75.20007364 189.8896913 74.01108551 188.71396456 72.81718826 187.54326439 C71.15079396 185.9062613 69.504486 184.25133874 67.86181641 182.59057617 C67.3663028 182.11192108 66.87078918 181.63326599 66.36026001 181.1401062 C63.95111705 178.66294481 63.03204019 177.24089421 62.57113647 173.77558899 C63 171 63 171 65 169 C67.43017578 168.77294922 67.43017578 168.77294922 70.4453125 168.8046875 C72.05986328 168.81435547 72.05986328 168.81435547 73.70703125 168.82421875 C74.83496094 168.84097656 75.96289062 168.85773438 77.125 168.875 C78.26066406 168.88402344 79.39632812 168.89304687 80.56640625 168.90234375 C83.37781299 168.92596902 86.18880298 168.95890987 89 169 C81.72075439 135.56595348 63.7523605 106.13167966 35 87 C26.37874327 81.60687235 17.37047611 76.95068802 8 73 C9.47257926 69.8142716 11.2944232 67.13354409 13.375 64.3125 C14.59514543 62.54978469 15.8040756 60.77923719 17 59 C17.44472656 58.34515625 17.88945313 57.6903125 18.34765625 57.015625 C22.90020778 48.85693051 22.33459382 37.07240188 20.375 28.15625 C19.45149123 25.88046052 18.38656091 24.02711299 17 22 C16.42894531 21.13503906 15.85789062 20.27007812 15.26953125 19.37890625 C11.17176441 13.48172083 6.58465719 8.14302814 1.6875 2.8984375 C0 1 0 1 0 0 Z " fill="#B12966" transform="translate(556,310)"/>
<path d="M0 0 C5.90535974 4.90318789 11.45795042 10.14152928 16.92749023 15.52246094 C17.94058525 16.51377073 18.95990643 17.49875433 19.98510742 18.47753906 C21.48266024 19.90822197 22.95958992 21.35761374 24.43359375 22.8125 C25.31072021 23.66457031 26.18784668 24.51664063 27.09155273 25.39453125 C29 28 29 28 29.47290039 31.13671875 C29 34 29 34 27.83276367 35.85668945 C25.33875195 37.41249829 23.60444476 37.34151013 20.67578125 37.29296875 C19.64775391 37.28330078 18.61972656 37.27363281 17.56054688 37.26367188 C15.95276367 37.2259668 15.95276367 37.2259668 14.3125 37.1875 C13.22904297 37.17396484 12.14558594 37.16042969 11.02929688 37.14648438 C8.35236595 37.11110643 5.67643162 37.06174189 3 37 C8.23769444 59.34966509 17.54688786 78.83581662 33 96 C34.11761719 97.24136719 34.11761719 97.24136719 35.2578125 98.5078125 C49.13649458 113.11936228 66.70525633 122.97705593 85 131 C83.62400437 134.07734984 82.01395144 136.20053841 79.6875 138.625 C70.85623749 148.45185369 69.16014502 158.99501297 69.78662109 171.76171875 C70.77398239 182.11884499 77.4087961 189.49540829 84 197 C85.01424016 198.32253343 86.02008499 199.65183667 87 201 C82.57265217 201 80.05302273 198.29613714 76.6875 195.6875 C75.9769043 195.14351562 75.26630859 194.59953125 74.53417969 194.0390625 C73.06435309 192.91134508 71.5970845 191.78028624 70.13232422 190.64599609 C68.18326828 189.14146952 66.22154425 187.65586293 64.25390625 186.17578125 C56.1685983 180.03607013 49.02953197 173.31238944 42 166 C39.52462242 163.50159566 37.03195855 161.0306145 34.4921875 158.59765625 C27.24930757 151.58179196 21.02560285 144.07536804 15 136 C14.57332031 135.43410156 14.14664063 134.86820313 13.70703125 134.28515625 C-0.8199652 114.93072714 -12.73411728 93.12767414 -20 70 C-20.3710083 68.8255835 -20.3710083 68.8255835 -20.74951172 67.62744141 C-21.57301871 65.0048425 -22.38346512 62.37863152 -23.1875 59.75 C-23.43790039 58.93394287 -23.68830078 58.11788574 -23.94628906 57.27709961 C-28.86482722 40.79933122 -28.86482722 40.79933122 -28 34 C-26.56640625 31.578125 -26.56640625 31.578125 -24.5625 29.25 C-23.83289063 28.39148438 -23.10328125 27.53296875 -22.3515625 26.6484375 C-21.18753906 25.33746094 -21.18753906 25.33746094 -20 24 C-18.86691406 22.71996094 -18.86691406 22.71996094 -17.7109375 21.4140625 C-15.48713182 18.93043072 -13.2457119 16.46382061 -11 14 C-6.95120654 9.52082298 -3.20391551 5.12626482 0 0 Z " fill="#6E2967" transform="translate(383,502)"/>
<path d="M0 0 C0.81339844 -0.01933594 1.62679687 -0.03867187 2.46484375 -0.05859375 C10.21513793 1.42153762 16.01063422 8.97921147 21.39672852 14.34619141 C23.00813552 15.94557482 24.63730218 17.52535138 26.26757812 19.10546875 C27.2928071 20.12124608 28.31693662 21.13813456 29.33984375 22.15625 C30.27046631 23.07341797 31.20108887 23.99058594 32.15991211 24.93554688 C34.0625 27.4375 34.0625 27.4375 33.93310547 29.66455078 C32.92549941 31.71649559 31.80916788 33.13573065 30.25 34.8125 C23.25824879 42.52505031 16.43294445 50.4141221 9.875 58.5 C9.34519531 59.15097656 8.81539063 59.80195312 8.26953125 60.47265625 C6.86113718 62.76528479 6.57059003 64.8175227 6.0625 67.4375 C5.0725 67.9325 5.0725 67.9325 4.0625 68.4375 C3.16953103 70.71309509 3.16953103 70.71309509 2.43359375 73.53515625 C1.9708606 75.17991943 1.9708606 75.17991943 1.4987793 76.85791016 C1.16918213 78.0597998 0.83958496 79.26168945 0.5 80.5 C-0.02953888 82.39232094 -0.55908404 84.28464013 -1.08891296 86.17687988 C-1.65257024 88.19511495 -2.212475 90.21435967 -2.77148438 92.23388672 C-4.54976666 98.6539812 -6.35887407 105.06541994 -8.16403198 111.47799683 C-8.73735459 113.51751563 -9.30857121 115.55761257 -9.87915039 117.59790039 C-11.83124616 124.56575479 -13.82132848 131.51756837 -15.9375 138.4375 C-17.5875 138.4375 -19.2375 138.4375 -20.9375 138.4375 C-31.65307227 115.86640096 -41.64975564 90.84128452 -40.9375 65.4375 C-41.59347168 65.45321045 -42.24944336 65.4689209 -42.92529297 65.48510742 C-45.88760816 65.54733652 -48.8497861 65.58645168 -51.8125 65.625 C-52.84503906 65.65013672 -53.87757813 65.67527344 -54.94140625 65.70117188 C-56.42060547 65.71567383 -56.42060547 65.71567383 -57.9296875 65.73046875 C-58.84089355 65.7461792 -59.75209961 65.76188965 -60.69091797 65.77807617 C-61.43229004 65.66568604 -62.17366211 65.5532959 -62.9375 65.4375 C-64.9375 62.4375 -64.9375 62.4375 -64.87445068 60.09231567 C-63.64491654 56.60847541 -61.53285321 54.48810545 -58.94628906 51.96044922 C-58.168078 51.17654312 -58.168078 51.17654312 -57.37414551 50.37680054 C-55.66008402 48.65534241 -53.93206662 46.9486901 -52.203125 45.2421875 C-51.00510967 44.0465576 -49.80783405 42.85018609 -48.61126709 41.65310669 C-46.10212147 39.14708777 -43.58640548 36.64792535 -41.06542969 34.15380859 C-37.83946817 30.96178959 -34.62679186 27.7568002 -31.41852188 24.54701042 C-28.94665281 22.07568619 -26.46959726 19.6096168 -23.99077606 17.14526749 C-22.80469773 15.96553941 -21.61981443 14.78460859 -20.43616486 13.6024437 C-18.77782843 11.94846114 -17.11305942 10.30123935 -15.44628906 8.65576172 C-14.96089661 8.16946289 -14.47550415 7.68316406 -13.97540283 7.18212891 C-9.7418023 3.0270692 -6.08067299 0.00960612 0 0 Z " fill="#705790" transform="translate(348.9375,473.5625)"/>
<path d="M0 0 C1.32 0 2.64 0 4 0 C13.96967274 22.51547271 21.3155004 44.45600368 24 69 C24.55985596 69.01458252 25.11971191 69.02916504 25.6965332 69.04418945 C28.23588137 69.11871352 30.77392078 69.21535581 33.3125 69.3125 C34.19357422 69.33505859 35.07464844 69.35761719 35.98242188 69.38085938 C37.25375977 69.4340332 37.25375977 69.4340332 38.55078125 69.48828125 C39.72120972 69.52755737 39.72120972 69.52755737 40.9152832 69.56762695 C43.56210169 70.11658064 44.47230581 70.77393132 46 73 C46.34382629 75.30735779 46.34382629 75.30735779 46 78 C44.23156738 80.37643433 44.23156738 80.37643433 41.72070312 82.86279297 C41.26538208 83.32045044 40.81006104 83.77810791 40.34094238 84.24963379 C38.83275059 85.75943988 37.30748838 87.25064443 35.78125 88.7421875 C34.72322343 89.79341844 33.66623164 90.84569177 32.61022949 91.8989563 C29.82300584 94.67276005 27.02067429 97.43081866 24.21533203 100.1862793 C21.94680872 102.41960918 19.68928814 104.663875 17.43231964 106.9088726 C14.71911274 109.60716635 12.00083625 112.30032523 9.28125 114.9921875 C8.77106827 115.49745846 8.26088654 116.00272942 7.73524475 116.52331161 C-10.73264422 134.78323558 -10.73264422 134.78323558 -15.04296875 135.1953125 C-15.75066406 135.17210937 -16.45835937 135.14890625 -17.1875 135.125 C-18.445625 135.08375 -19.70375 135.0425 -21 135 C-21.01981934 133.91283691 -21.03963867 132.82567383 -21.06005859 131.70556641 C-21.13751644 127.57890902 -21.22598536 123.45254206 -21.31738281 119.32617188 C-21.3551056 117.55767651 -21.39004398 115.78911903 -21.421875 114.02050781 C-21.61965376 103.15503738 -22.22170357 92.48519054 -23.58447266 81.70068359 C-23.91609033 78.74729892 -24.08906642 75.9638119 -24 73 C-23.34 73 -22.68 73 -22 73 C-21.89042969 72.45472656 -21.78085937 71.90945313 -21.66796875 71.34765625 C-21.50941406 70.59355469 -21.35085938 69.83945312 -21.1875 69.0625 C-21.03667969 68.33160156 -20.88585937 67.60070312 -20.73046875 66.84765625 C-19.32807066 61.38055354 -17.37243184 56.07946002 -15.53515625 50.74609375 C-13.08694664 43.6115694 -10.80089185 36.53070696 -9.0625 29.1875 C-6.70094766 19.24888184 -3.33747342 9.64659266 0 0 Z " fill="#E26E94" transform="translate(701,408)"/>
<path d="M0 0 C1.10794922 -0.05994141 1.10794922 -0.05994141 2.23828125 -0.12109375 C8.89655772 1.39746053 12.60397359 7.7386847 16.0625 13.125 C16.51238281 13.80111328 16.96226562 14.47722656 17.42578125 15.17382812 C20.6875 20.1556326 20.6875 20.1556326 20.6875 22.4375 C21.3475 22.4375 22.0075 22.4375 22.6875 22.4375 C22.93886719 23.13230469 23.19023438 23.82710938 23.44921875 24.54296875 C24.85724523 27.83428618 26.59989557 30.71637248 28.5 33.75 C28.85674805 34.32468018 29.21349609 34.89936035 29.58105469 35.49145508 C31.08882469 37.91582643 32.61412842 40.32600585 34.18359375 42.7109375 C36.89932936 46.85645291 38.83884328 50.97566936 40.5859375 55.61328125 C41.86051539 58.881082 43.30905312 62.05223366 44.75 65.25 C52.21819632 82.54377785 53.86291677 99.5974071 47.6875 117.4375 C42.32960016 129.59812661 34.49494107 138.78264745 22.03515625 143.953125 C18.61772211 145.2144465 15.16226141 146.34401201 11.6875 147.4375 C10.6975 147.7675 9.7075 148.0975 8.6875 148.4375 C-6.96977015 149.38092763 -20.78752206 147.19675096 -33.3046875 137 C-40.03403445 131.00249184 -45.06337779 126.03664594 -48 117.375 C-48.41636719 116.16714844 -48.83273437 114.95929688 -49.26171875 113.71484375 C-51.23588638 107.55749565 -51.52837975 102.20299315 -51.5625 95.75 C-51.583125 94.79416016 -51.60375 93.83832031 -51.625 92.85351562 C-51.65991701 86.45060908 -50.67867538 81.36700519 -48.3125 75.4375 C-47.9825 74.46425781 -47.6525 73.49101562 -47.3125 72.48828125 C-39.30229073 50.55407538 -27.05551524 30.54672106 -13.8125 11.4375 C-12.91277466 10.13594971 -12.91277466 10.13594971 -11.99487305 8.80810547 C-11.42937744 8.00518066 -10.86388184 7.20225586 -10.28125 6.375 C-9.78044922 5.66214844 -9.27964844 4.94929688 -8.76367188 4.21484375 C-6.1847727 1.05629968 -3.94097212 0.11571075 0 0 Z M-0.3125 8.4375 C-20.12768769 29.20967118 -42.50644764 66.93469325 -43.875 96.1875 C-43.28407962 106.56853378 -39.96776492 116.43570473 -33.3125 124.4375 C-32.73757813 125.13488281 -32.16265625 125.83226562 -31.5703125 126.55078125 C-24.40364295 134.44601264 -15.09848455 139.01424329 -4.4921875 139.67578125 C9.43994287 140.03442375 20.37395962 137.13466578 30.84765625 127.4375 C40.61010928 117.21885757 43.13180785 106.32448439 42.89453125 92.5546875 C42.00051094 68.58616753 25.49510219 43.87182784 12.6875 24.4375 C12.20007324 23.69677246 11.71264648 22.95604492 11.21044922 22.19287109 C9.71430609 19.93310647 8.20457761 17.68325465 6.6875 15.4375 C5.98379272 14.38526245 5.98379272 14.38526245 5.26586914 13.31176758 C4.12582414 11.64957736 2.91313003 10.0376281 1.6875 8.4375 C1.0275 8.4375 0.3675 8.4375 -0.3125 8.4375 Z " fill="#F8F6F4" transform="translate(515.3125,432.5625)"/>
<path d="M0 0 C4.68236787 0.53847231 8.64623765 1.4586082 13 3.25 C17.80733909 5.1707279 22.6376559 6.90939059 27.5625 8.5 C32.02050843 9.95086783 36.37982921 11.51845456 40.6875 13.375 C46.09727705 15.68718422 51.5830396 17.71913622 57.125 19.6875 C57.94830811 19.9851123 58.77161621 20.28272461 59.61987305 20.58935547 C65.34018163 22.59662127 71.02981421 23.95850434 77 25 C77 25.99 77 26.98 77 28 C57.10173692 37.72497433 33.21266795 43.5432446 11 43 C11.01047363 43.59538574 11.02094727 44.19077148 11.03173828 44.80419922 C11.07323949 47.49442343 11.09930704 50.18458037 11.125 52.875 C11.14175781 53.81214844 11.15851562 54.74929688 11.17578125 55.71484375 C11.18222656 56.61074219 11.18867187 57.50664063 11.1953125 58.4296875 C11.20578613 59.25710449 11.21625977 60.08452148 11.22705078 60.93701172 C11 63 11 63 9 65 C5.06173976 65.1880074 3.06902071 64.86502883 -0.02148438 62.36425781 C-2.18312064 60.1831196 -4.2268188 57.93505018 -6.25 55.625 C-6.95640625 54.84382812 -7.6628125 54.06265625 -8.390625 53.2578125 C-9.70208336 51.80726007 -11.00662584 50.35040188 -12.30175781 48.88525391 C-13.94454152 46.99549776 -13.94454152 46.99549776 -15.72509766 45.44750977 C-17 44 -17 44 -16.9453125 40.86328125 C-15.81742805 36.25386918 -14.00953519 32.40363356 -11.875 28.1875 C-7.35339849 18.9849895 -3.56931633 9.60616646 0 0 Z " fill="#E07B9F" transform="translate(531,672)"/>
<path d="M0 0 C0.66 0.33 1.32 0.66 2 1 C-0.269688 13.08338659 -3.67308483 24.81990744 -7.04296875 36.63183594 C-8.92274144 43.24748493 -10.7587932 49.875457 -12.60253906 56.5012207 C-14.33160571 62.68948634 -16.12936521 68.85302668 -18 75 C-19.65 75 -21.3 75 -23 75 C-27.5055568 65.4154519 -31.61061101 55.79056643 -35 45.75 C-35.30236572 44.86997314 -35.60473145 43.98994629 -35.91625977 43.08325195 C-38.81764579 34.25675138 -38.81764579 34.25675138 -38 30 C-35.89453125 27.7890625 -35.89453125 27.7890625 -32.8125 25.625 C-31.63207307 24.77185549 -30.45244533 23.91760458 -29.2734375 23.0625 C-28.60666992 22.588125 -27.93990234 22.11375 -27.25292969 21.625 C-22.75046313 18.37744718 -18.3534583 14.98863349 -13.9375 11.625 C-13.02137939 10.93486816 -12.10525879 10.24473633 -11.16137695 9.53369141 C-10.292146 8.87546387 -9.42291504 8.21723633 -8.52734375 7.5390625 C-7.75124756 6.95334473 -6.97515137 6.36762695 -6.17553711 5.76416016 C-3.96124464 3.96857297 -1.97870133 2.04988169 0 0 Z " fill="#796CA1" transform="translate(351,537)"/>
<path d="M0 0 C0 -0.66 0 -1.32 0 -2 C2.375 -1.8125 2.375 -1.8125 5 -1 C6.3125 1.5625 6.3125 1.5625 7 4 C7.66 4 8.32 4 9 4 C9.98248524 8.0527516 10.08159574 11.83861737 10 16 C7.78358334 13.86274108 5.78762592 11.73140926 3.875 9.3125 C1.8963903 6.8722147 1.07707235 6.1481239 -1.98828125 5.7265625 C-2.75527344 5.69304687 -3.52226563 5.65953125 -4.3125 5.625 C-5.07175781 5.57601563 -5.83101562 5.52703125 -6.61328125 5.4765625 C-13.68772006 7.02807608 -18.0183048 16.63083195 -21.6875 22.1875 C-22.75315186 23.79782104 -22.75315186 23.79782104 -23.84033203 25.44067383 C-31.99334068 37.88332524 -38.98097911 50.6704564 -45.4375 64.0625 C-46.05794189 65.3477356 -46.05794189 65.3477356 -46.69091797 66.65893555 C-49.20980836 71.99737825 -51.27176433 77.35579163 -53 83 C-53.33 83 -53.66 83 -54 83 C-54 77.06 -54 71.12 -54 65 C-55.80899939 68.61799878 -56.36479829 71.09682893 -56.7890625 75.046875 C-57.2532597 79.34499721 -58.29796216 83.02857838 -60 87 C-59.34 87 -58.68 87 -58 87 C-58.15847412 87.71567139 -58.31694824 88.43134277 -58.48022461 89.16870117 C-58.98456957 91.91594802 -59.20226167 94.5123923 -59.31640625 97.30078125 C-59.37924805 98.76547852 -59.37924805 98.76547852 -59.44335938 100.25976562 C-59.48267578 101.26716797 -59.52199219 102.27457031 -59.5625 103.3125 C-59.60568359 104.33923828 -59.64886719 105.36597656 -59.69335938 106.42382812 C-59.79906825 108.94909569 -59.90116468 111.47445562 -60 114 C-63.83508741 108.24736889 -63.11884965 101.68199149 -63 95 C-63.99 95.495 -63.99 95.495 -65 96 C-65.47179325 98.38165593 -65.47179325 98.38165593 -65.625 101.1875 C-65.69847656 102.1775 -65.77195312 103.1675 -65.84765625 104.1875 C-66.00709402 107.13096647 -66.07965371 110.05281269 -66 113 C-66.99 112.34 -67.98 111.68 -69 111 C-69.02972365 108.24164531 -68.91102221 105.72674504 -68.625 103 C-67.85344504 97.86447583 -67.85344504 97.86447583 -69 93 C-68.11063721 90.6499619 -67.1696052 88.40456069 -66.125 86.125 C-63.54301784 80.732867 -63.54301784 80.732867 -62 75 C-62.33 74.67 -62.66 74.34 -63 74 C-63.33 73.34 -63.66 72.68 -64 72 C-63.195625 70.989375 -62.39125 69.97875 -61.5625 68.9375 C-58.89452981 65.24454691 -58.27589129 62.50622444 -58 58 C-57.34 58 -56.68 58 -56 58 C-55.5359375 56.576875 -55.5359375 56.576875 -55.0625 55.125 C-54 52 -54 52 -53 50 C-52.89429688 49.236875 -52.78859375 48.47375 -52.6796875 47.6875 C-51.8343853 44.34515567 -50.35398334 42.61272773 -48.125 40 C-45.4163602 36.80160614 -42.9521034 33.72334099 -41 30 C-41.20643199 27.74671588 -41.20643199 27.74671588 -42 26 C-41.01 25.67 -40.02 25.34 -39 25 C-37.93283296 23.20067421 -37.93283296 23.20067421 -37 21 C-36.484375 20.154375 -35.96875 19.30875 -35.4375 18.4375 C-33.88141236 15.99345222 -33.88141236 15.99345222 -33 13 C-32.01 13 -31.02 13 -30 13 C-29.76152344 12.40316406 -29.52304687 11.80632812 -29.27734375 11.19140625 C-27.72662085 8.53099173 -26.17106603 7.54375987 -23.5625 5.9375 C-20.68449283 4.15000626 -18.36858174 2.40794875 -16 0 C-9.8450594 -3.69296436 -6.42883497 -2.84268213 0 0 Z M-44 32 C-43.01 32.495 -43.01 32.495 -42 33 C-42.99 33.495 -42.99 33.495 -44 34 C-44 33.34 -44 32.68 -44 32 Z " fill="#462D35" transform="translate(520,428)"/>
<path d="M0 0 C6.61610689 0.96156 12.07662216 2.81630955 18.0859375 5.7109375 C21.16130938 7.0713567 24.21197447 8.05312735 27.4375 9 C31.60659918 10.22534414 35.5743504 11.58804658 39.5625 13.3125 C45.01354801 15.64970034 50.53772106 17.70438475 56.125 19.6875 C56.94814697 19.98503174 57.77129395 20.28256348 58.61938477 20.58911133 C64.33982248 22.59659236 70.02963051 23.95847229 76 25 C76 25.99 76 26.98 76 28 C60.66699289 35.49377471 43.17377271 40.93407381 26 41 C25.65710938 40.38898437 25.31421875 39.77796875 24.9609375 39.1484375 C20.75935793 31.80084762 16.29154803 24.64139432 11.75 17.5 C10.82840088 16.04859619 10.82840088 16.04859619 9.88818359 14.56787109 C6.74849061 9.59133052 6.74849061 9.59133052 3.30566406 4.82617188 C2 3 2 3 2 1 C1.34 0.67 0.68 0.34 0 0 Z " fill="#E38BA9" transform="translate(532,672)"/>
<path d="M0 0 C0.33 0 0.66 0 1 0 C2.46357058 4.57365805 3.11261127 8.15771556 3 13 C3.495 13.99 3.495 13.99 4 15 C4.07017429 18.08766857 3.99687882 21.16230137 3.9375 24.25 C3.80344194 26.96253013 3.80344194 26.96253013 5 29 C5.66 28.34 6.32 27.68 7 27 C8.00821159 29.68856424 8.22736824 31.41703215 7.17578125 34.11328125 C6.16604698 36.10794931 5.11893353 38.0646772 4 40 C5.485 40.495 5.485 40.495 7 41 C6.71125 41.556875 6.4225 42.11375 6.125 42.6875 C3.82861122 47.15245412 3.82861122 47.15245412 3 52 C3.66 52.33 4.32 52.66 5 53 C2.40011087 61.54509014 -2.30656844 69.73407607 -10.28125 74.30859375 C-15.18840779 77.36146634 -19.0937074 81.69389623 -23.20507812 85.7265625 C-24.2347168 86.7165625 -24.2347168 86.7165625 -25.28515625 87.7265625 C-25.90269775 88.33064941 -26.52023926 88.93473633 -27.15649414 89.55712891 C-29.12611638 91.09870849 -30.55538152 91.5914945 -33 92 C-33 91.34 -33 90.68 -33 90 C-33.86625 90.2165625 -33.86625 90.2165625 -34.75 90.4375 C-35.4925 90.623125 -36.235 90.80875 -37 91 C-37.598125 91.20625 -38.19625 91.4125 -38.8125 91.625 C-41 92 -41 92 -44.3125 91.375 C-48.75274305 90.92344986 -50.99548987 92.18663692 -55 94 C-57.4375 93.6875 -57.4375 93.6875 -59 93 C-59 92.34 -59 91.68 -59 91 C-59.763125 91.165 -60.52625 91.33 -61.3125 91.5 C-65.32155044 92.24586985 -67.53876877 92.0977159 -71 90 C-73.73318093 87.58836977 -75.67745695 85.41656954 -77 82 C-77 81.01 -77 80.02 -77 79 C-76.175 79.2165625 -75.35 79.433125 -74.5 79.65625 C-58.35244787 83.54896346 -44.08334388 83.52876572 -29.23828125 75.5078125 C-17.69597787 68.14363216 -9.71278283 57.11218072 -6.25 43.9375 C-4.65171229 36.57673714 -4.72012581 29.49440898 -5 22 C-3.68 23.32 -2.36 24.64 -1 26 C-1.00523682 25.28344238 -1.01047363 24.56688477 -1.01586914 23.82861328 C-1.03660667 20.59408438 -1.04964984 17.35956944 -1.0625 14.125 C-1.07087891 12.99707031 -1.07925781 11.86914062 -1.08789062 10.70703125 C-1.09111328 9.63066406 -1.09433594 8.55429687 -1.09765625 7.4453125 C-1.10289307 6.45031738 -1.10812988 5.45532227 -1.11352539 4.43017578 C-1 2 -1 2 0 0 Z M0 52 C-0.33 52.66 -0.66 53.32 -1 54 C-0.34 54 0.32 54 1 54 C0.67 53.34 0.34 52.68 0 52 Z " fill="#52343F" transform="translate(571,498)"/>
<path d="M0 0 C4.48825232 0.74948937 6.72370268 3.16386702 9.77294922 6.31347656 C10.36375275 6.90328308 10.95455627 7.4930896 11.56326294 8.10076904 C12.80575824 9.34793592 14.04089489 10.60247175 15.26904297 11.86376953 C17.15280879 13.79482451 19.06191787 15.69774873 20.97607422 17.59863281 C22.18079356 18.81450307 23.38397343 20.03190105 24.58544922 21.25097656 C25.44310379 22.10589691 25.44310379 22.10589691 26.31808472 22.97808838 C30.28076172 27.08571055 30.28076172 27.08571055 30.28076172 31.54785156 C29.29076172 32.04285156 29.29076172 32.04285156 28.28076172 32.54785156 C27.39617625 34.12946682 26.58831418 35.75434315 25.81982422 37.39550781 C25.34802734 38.39388672 24.87623047 39.39226562 24.39013672 40.42089844 C23.90029297 41.47341797 23.41044922 42.5259375 22.90576172 43.61035156 C21.9402365 45.66402887 20.97410151 47.71741962 20.00732422 49.77050781 C19.54616211 50.75293457 19.085 51.73536133 18.60986328 52.74755859 C16.88758418 56.37623996 15.0959215 59.96484658 13.28076172 63.54785156 C12.29076172 63.54785156 11.30076172 63.54785156 10.28076172 63.54785156 C10.16829102 62.66194336 10.05582031 61.77603516 9.93994141 60.86328125 C9.2869355 57.57890341 8.36678693 55.39951569 6.73388672 52.50097656 C6.21826172 51.57285156 5.70263672 50.64472656 5.17138672 49.68847656 C4.62998047 48.73457031 4.08857422 47.78066406 3.53076172 46.79785156 C1.43338237 43.0554688 -0.64884739 39.30522763 -2.71923828 35.54785156 C-3.239375 34.62681641 -3.75951172 33.70578125 -4.29541016 32.75683594 C-4.77042969 31.87833984 -5.24544922 30.99984375 -5.73486328 30.09472656 C-6.16573242 29.31452148 -6.59660156 28.53431641 -7.04052734 27.73046875 C-7.71923828 25.54785156 -7.71923828 25.54785156 -6.86474609 23.52758789 C-6.48672852 22.8742749 -6.10871094 22.22096191 -5.71923828 21.54785156 C-5.39136823 19.47805268 -5.39136823 19.47805268 -5.37548828 17.32519531 C-5.33101563 16.14666992 -5.33101563 16.14666992 -5.28564453 14.94433594 C-5.24126828 13.30110961 -5.19699795 11.65788043 -5.15283203 10.01464844 C-5.10835938 8.83805664 -5.10835938 8.83805664 -5.06298828 7.63769531 C-5.04429687 6.92476318 -5.02560547 6.21183105 -5.00634766 5.47729492 C-4.48561425 1.97784246 -3.4271125 0.69046871 0 0 Z " fill="#34CD96" transform="translate(492.71923828125,280.4521484375)"/>
<path d="M0 0 C10.8525958 4.2575996 19.43094314 12.28249279 28.31787109 19.64086914 C29.65159014 20.7184909 31.03513572 21.73439805 32.43359375 22.7265625 C34.64536678 24.52466227 34.70248418 26.2479787 35 29 C35.99 29.33 36.98 29.66 38 30 C35.337658 32.69181275 32.66933333 35.37762147 30 38.0625 C29.25621094 38.81466797 28.51242187 39.56683594 27.74609375 40.34179688 C12.38245744 55.7722316 12.38245744 55.7722316 7.95703125 56.1953125 C6.89548828 56.16050781 6.89548828 56.16050781 5.8125 56.125 C4.554375 56.08375 3.29625 56.0425 2 56 C1.97494385 54.9076001 1.9498877 53.8152002 1.92407227 52.68969727 C1.82831224 48.55013651 1.72853776 44.41067979 1.62768555 40.27124023 C1.58496156 38.49587474 1.54325797 36.72048433 1.50268555 34.94506836 C1.23518165 23.27727474 0.77346258 11.64559421 0 0 Z " fill="#E45984" transform="translate(678,487)"/>
<path d="M0 0 C0.66 0 1.32 0 2 0 C2 0.66 2 1.32 2 2 C23.78 1.34 45.56 0.68 68 0 C66.87471422 5.62642892 66.87471422 5.62642892 64.37963867 8.13793945 C63.83204391 8.69814285 63.28444916 9.25834625 62.72026062 9.83552551 C62.1255043 10.42218491 61.53074799 11.0088443 60.91796875 11.61328125 C60.30738113 12.22769577 59.69679352 12.84211029 59.06770325 13.47514343 C57.77718233 14.7683813 56.48161622 16.05660159 55.18139648 17.34008789 C53.19095162 19.30908557 51.22277268 21.29854203 49.25585938 23.29101562 C47.9986767 24.54555571 46.74025411 25.79885475 45.48046875 27.05078125 C44.89178513 27.6475618 44.3031015 28.24434235 43.69657898 28.85920715 C39.4598903 33 39.4598903 33 35 33 C34.70222656 31.92492187 34.70222656 31.92492187 34.3984375 30.828125 C32.56579204 27.1218811 29.87166324 25.15479138 26.625 22.75 C26.00230225 22.27618896 25.37960449 21.80237793 24.73803711 21.31420898 C23.45545195 20.3405784 22.16921135 19.37174481 20.87939453 18.40771484 C19.12586208 17.09427394 17.38695537 15.76405882 15.65234375 14.42578125 C10.60054732 10.56189144 5.64078369 6.94859148 0 4 C0 2.68 0 1.36 0 0 Z " fill="#E17197" transform="translate(678,483)"/>
<path d="M0 0 C3.80618565 0.52853455 5.87110827 1.3483546 8.68359375 3.95703125 C9.36921387 4.58818848 10.05483398 5.2193457 10.76123047 5.86962891 C11.86942139 6.9241626 11.86942139 6.9241626 13 8 C14.2068042 9.13381104 14.2068042 9.13381104 15.43798828 10.29052734 C18.00566972 12.7305914 20.53670404 15.2041544 23.0625 17.6875 C23.94099609 18.52861328 24.81949219 19.36972656 25.72460938 20.23632812 C26.54896484 21.04908203 27.37332031 21.86183594 28.22265625 22.69921875 C28.97297119 23.42971436 29.72328613 24.16020996 30.49633789 24.9128418 C32 27 32 27 31.81152344 29.16577148 C30.86597074 31.30293677 29.78067465 32.66165889 28.1875 34.375 C24.73501383 38.18341257 21.34752009 42.03682993 18 45.9375 C17.22354126 46.84145508 17.22354126 46.84145508 16.43139648 47.76367188 C12.47170364 52.39659406 8.66142908 57.12668947 5 62 C1.57488939 58.57488939 1.76519792 54.97412055 1.46484375 50.33203125 C1.42177597 49.66793243 1.37870819 49.00383362 1.33433533 48.3196106 C1.19650987 46.1508777 1.06626607 43.98178857 0.9375 41.8125 C0.89264465 41.07734161 0.84778931 40.34218323 0.80157471 39.58474731 C0.0057907 26.38311133 -0.24994549 13.22596194 0 0 Z " fill="#6A407E" transform="translate(351,474)"/>
<path d="M0 0 C1.7438821 12.93461143 2.25458388 25.58348243 2.125 38.625 C2.11493077 40.4218699 2.10581202 42.21874539 2.09765625 44.015625 C2.07599937 48.3438925 2.04169671 52.6718811 2 57 C3.98 57 5.96 57 8 57 C8 57.33 8 57.66 8 58 C1.17307549 58.40961547 -2.68415093 56.97868465 -7.88427734 52.53564453 C-8.87636359 51.57644259 -9.85995592 50.60839615 -10.8359375 49.6328125 C-11.62226059 48.8579097 -11.62226059 48.8579097 -12.42446899 48.06735229 C-13.52232734 46.98023736 -14.61630669 45.88919233 -15.70654297 44.79443359 C-17.37738288 43.12261573 -19.06848708 41.47331754 -20.76171875 39.82421875 C-21.8294223 38.76171873 -22.89587391 37.69795884 -23.9609375 36.6328125 C-24.46708588 36.14305939 -24.97323425 35.65330627 -25.49472046 35.14871216 C-27.65685145 32.9429504 -28.91657455 31.43699046 -29.50244141 28.36816406 C-28.89959079 25.52673986 -28.07800016 24.48324736 -26 22.4765625 C-25.36360596 21.85112549 -24.72721191 21.22568848 -24.0715332 20.58129883 C-23.38792725 19.93572021 -22.70432129 19.2901416 -22 18.625 C-21.31317139 17.95815186 -20.62634277 17.29130371 -19.91870117 16.60424805 C-15.88868629 12.71538621 -11.79748846 8.90398704 -7.51171875 5.296875 C-5.80116712 3.86844547 -5.80116712 3.86844547 -3.625 1.5625 C-2 0 -2 0 0 0 Z " fill="#C6346C" transform="translate(678,486)"/>
<path d="M0 0 C3.36223005 2.62417955 6.30388336 5.24483236 9.0625 8.5 C12.94385333 13.07040258 17.18622255 17.24193309 21.46899414 21.43164062 C28.81765233 28.66764637 28.81765233 28.66764637 29.29296875 32.140625 C29.1953125 34.09375 29.09765625 36.046875 29 38 C18.13911866 38.14310247 7.39677177 37.71437393 -3.4375 37 C-4.95895696 36.90321397 -6.48044134 36.80685783 -8.00195312 36.7109375 C-11.66829643 36.47888691 -15.33424018 36.24111356 -19 36 C-18.01 35.505 -18.01 35.505 -17 35 C-16.32166039 33.0039289 -15.65883383 31.00259392 -15 29 C-13.43471563 25.44067628 -11.7475823 21.9414013 -10.0625 18.4375 C-9.39831055 17.03854492 -9.39831055 17.03854492 -8.72070312 15.61132812 C-4.12241145 5.99671825 -4.12241145 5.99671825 -2 3 C-1.34 3 -0.68 3 0 3 C0 2.01 0 1.02 0 0 Z " fill="#32CC92" transform="translate(523,309)"/>
<path d="M0 0 C1.875 0.6875 1.875 0.6875 2.875 1.6875 C3.08779565 3.4762476 3.29496216 5.26590375 3.46899414 7.05883789 C4.55683663 18.5176466 4.55683663 18.5176466 11.03125 27.6796875 C18.7259305 33.90038699 25.04160942 34.61200681 34.875 33.6875 C42.16654081 31.46166123 47.20905418 27.69317886 50.80078125 20.94921875 C53.03519632 15.83442028 53.33524299 10.76047079 53.56640625 5.2265625 C53.875 2.6875 53.875 2.6875 55.875 0.6875 C58.4375 0.5 58.4375 0.5 60.875 0.6875 C63.10544865 2.91794865 62.30252142 8.10861333 62.33691406 11.1809082 C62.15236537 20.42782277 57.93430249 27.84962792 51.875 34.6875 C42.26708532 41.81699113 32.73099523 43.92143942 20.875 42.6875 C11.3915933 40.09403314 3.98735752 35.70791642 -0.9375 27.125 C-1.70095311 25.66323483 -2.43045778 24.18323699 -3.125 22.6875 C-3.49367188 21.93984375 -3.86234375 21.1921875 -4.2421875 20.421875 C-5.41815564 16.77949579 -5.45463312 13.28641979 -5.4375 9.5 C-5.45361328 8.77619141 -5.46972656 8.05238281 -5.48632812 7.30664062 C-5.48828125 5.20703125 -5.48828125 5.20703125 -5.125 1.6875 C-2.125 -0.3125 -2.125 -0.3125 0 0 Z " fill="#FAF7F5" transform="translate(487.125,520.3125)"/>
<path d="M0 0 C1.6855556 3.0060089 2.39446371 5.57691127 2.8515625 8.984375 C2.98046875 9.91894531 3.109375 10.85351562 3.2421875 11.81640625 C3.36851562 12.78449219 3.49484375 13.75257813 3.625 14.75 C3.82609375 16.22533203 3.82609375 16.22533203 4.03125 17.73046875 C4.36050768 20.15286456 4.68318477 22.57595084 5 25 C5.83978394 25.02187378 5.83978394 25.02187378 6.6965332 25.04418945 C9.23588137 25.11871352 11.77392078 25.21535581 14.3125 25.3125 C15.63411133 25.34633789 15.63411133 25.34633789 16.98242188 25.38085938 C18.25375977 25.4340332 18.25375977 25.4340332 19.55078125 25.48828125 C20.72120972 25.52755737 20.72120972 25.52755737 21.9152832 25.56762695 C24.49829429 26.1033469 25.42466987 26.91088716 27 29 C27.1875 31.6875 27.1875 31.6875 27 34 C26.67 33.01 26.34 32.02 26 31 C24.515 31.495 24.515 31.495 23 32 C19.76132611 32.34547498 16.50360419 32.4304579 13.25 32.5625 C12.23679687 32.6049585 11.22359375 32.64741699 10.1796875 32.69116211 C-6.53570371 33.29631577 -23.2767953 33.0829524 -40 33 C-34.75299988 27.64807104 -34.75299988 27.64807104 -31.72265625 25.45703125 C-31.13331299 25.02777344 -30.54396973 24.59851563 -29.93676758 24.15625 C-29.31825928 23.7128125 -28.69975098 23.269375 -28.0625 22.8125 C-27.41369873 22.34199219 -26.76489746 21.87148438 -26.09643555 21.38671875 C-24.06836737 19.91871827 -22.03519496 18.45810109 -20 17 C-19.34064453 16.52739746 -18.68128906 16.05479492 -18.00195312 15.56787109 C-15.5266202 13.79544864 -13.05043914 12.02429527 -10.56860352 10.26098633 C-8.25563523 8.61760672 -5.962848 6.97084112 -3.73046875 5.21875 C-2 4 -2 4 0 4 C0 2.68 0 1.36 0 0 Z " fill="#E1507B" transform="translate(720,452)"/>
<path d="M0 0 C0.66 0 1.32 0 2 0 C2.51046875 1.17755859 2.51046875 1.17755859 3.03125 2.37890625 C8.05320028 13.26425062 13.78827324 18.82155554 25 23 C25 23.66 25 24.32 25 25 C24.21496094 25.3403125 23.42992187 25.680625 22.62109375 26.03125 C11.73574938 31.05320028 6.17844446 36.78827324 2 48 C1.34 48 0.68 48 0 48 C-0.3403125 47.21496094 -0.680625 46.42992187 -1.03125 45.62109375 C-6.05320028 34.73574938 -11.78827324 29.17844446 -23 25 C-23 24.34 -23 23.68 -23 23 C-22.21496094 22.6596875 -21.42992187 22.319375 -20.62109375 21.96875 C-9.73574938 16.94679972 -4.17844446 11.21172676 0 0 Z " fill="#7D7D7D" transform="translate(967,944)"/>
<path d="M0 0 C3.66541991 1.22180664 4.06858632 2.23690241 6.07421875 5.453125 C6.6561499 6.37697998 7.23808105 7.30083496 7.83764648 8.25268555 C8.44809814 9.24179932 9.0585498 10.23091309 9.6875 11.25 C10.62154663 12.74623901 10.62154663 12.74623901 11.57446289 14.27270508 C12.81663286 16.26453553 14.05554264 18.25840323 15.29101562 20.25439453 C16.75089085 22.59978836 18.23247219 24.927517 19.734375 27.24609375 C20.46880068 28.39319672 21.2031807 29.54032893 21.9375 30.6875 C22.56527344 31.66074219 23.19304688 32.63398437 23.83984375 33.63671875 C25 36 25 36 24 39 C19.05 39.33 14.1 39.66 9 40 C9.03480469 41.42054688 9.06960938 42.84109375 9.10546875 44.3046875 C9.13360146 46.16144655 9.16090217 48.01821833 9.1875 49.875 C9.22520508 51.28072266 9.22520508 51.28072266 9.26367188 52.71484375 C9.27817383 54.05869141 9.27817383 54.05869141 9.29296875 55.4296875 C9.31653442 56.67081299 9.31653442 56.67081299 9.34057617 57.93701172 C9.22818604 58.61779785 9.1157959 59.29858398 9 60 C8.01 60.66 7.02 61.32 6 62 C5.87625 61.443125 5.7525 60.88625 5.625 60.3125 C4.49531104 55.79620168 4.49531104 55.79620168 2 52 C1.6958662 49.09211427 1.45098331 46.20055368 1.24609375 43.28515625 C1.18092056 42.40025009 1.11574738 41.51534393 1.04859924 40.60362244 C0.91110834 38.72150571 0.77592032 36.83921959 0.64282227 34.95678711 C0.44054853 32.10547307 0.22965935 29.2548962 0.01757812 26.40429688 C-0.11510662 24.57295451 -0.24728336 22.74157524 -0.37890625 20.91015625 C-0.44139053 20.06808121 -0.50387482 19.22600616 -0.56825256 18.3584137 C-0.96907978 12.59743251 -1.35607466 6.7713559 -1 1 C-0.67 0.67 -0.34 0.34 0 0 Z " fill="#E47197" transform="translate(533,675)"/>
<path d="M0 0 C4.99567425 4.20485323 9.78377068 8.5451394 14.4375 13.125 C15.07365234 13.73214844 15.70980469 14.33929688 16.36523438 14.96484375 C16.96529297 15.55652344 17.56535156 16.14820313 18.18359375 16.7578125 C18.72556396 17.2852002 19.26753418 17.81258789 19.82592773 18.35595703 C21 20 21 20 21 24 C20.34 24.33 19.68 24.66 19 25 C18.11541453 26.58161526 17.30755246 28.20649159 16.5390625 29.84765625 C16.06726563 30.84603516 15.59546875 31.84441406 15.109375 32.87304688 C14.37460937 34.45182617 14.37460937 34.45182617 13.625 36.0625 C12.65947478 38.11617731 11.69333979 40.16956806 10.7265625 42.22265625 C10.26540039 43.20508301 9.80423828 44.18750977 9.32910156 45.19970703 C7.60682246 48.82838839 5.81515979 52.41699502 4 56 C3.67 56 3.34 56 3 56 C0.12529094 37.52371458 -0.30559667 18.67535234 0 0 Z " fill="#4BD5A7" transform="translate(502,288)"/>
<path d="M0 0 C0.33 0 0.66 0 1 0 C2.46357058 4.57365805 3.11261127 8.15771556 3 13 C3.495 13.99 3.495 13.99 4 15 C4.07017429 18.08766857 3.99687882 21.16230137 3.9375 24.25 C3.80344194 26.96253013 3.80344194 26.96253013 5 29 C5.66 28.34 6.32 27.68 7 27 C8.00821159 29.68856424 8.22736824 31.41703215 7.17578125 34.11328125 C6.16604698 36.10794931 5.11893353 38.0646772 4 40 C4.99 40.33 5.98 40.66 7 41 C6.71125 41.556875 6.4225 42.11375 6.125 42.6875 C3.82861122 47.15245412 3.82861122 47.15245412 3 52 C3.99 52.495 3.99 52.495 5 53 C2.40011087 61.54509014 -2.30656844 69.73407607 -10.28125 74.30859375 C-15.18840779 77.36146634 -19.0937074 81.69389623 -23.20507812 85.7265625 C-24.2347168 86.7165625 -24.2347168 86.7165625 -25.28515625 87.7265625 C-25.90269775 88.33064941 -26.52023926 88.93473633 -27.15649414 89.55712891 C-29.12611638 91.09870849 -30.55538152 91.5914945 -33 92 C-33 91.34 -33 90.68 -33 90 C-33.66 89.67 -34.32 89.34 -35 89 C-33.41728767 87.72839334 -31.83380365 86.45774715 -30.25 85.1875 C-29.36828125 84.47980469 -28.4865625 83.77210938 -27.578125 83.04296875 C-25.97591387 81.77333781 -24.34423066 80.53898095 -22.671875 79.36328125 C-22.12015625 78.91339844 -21.5684375 78.46351563 -21 78 C-21 77.34 -21 76.68 -21 76 C-20.1028125 75.5978125 -20.1028125 75.5978125 -19.1875 75.1875 C-16.96133587 73.9790109 -15.58687016 72.96469639 -14 71 C-13.87625 70.34 -13.7525 69.68 -13.625 69 C-13.315625 68.01 -13.315625 68.01 -13 67 C-12.21625 66.608125 -11.4325 66.21625 -10.625 65.8125 C-6.6913945 63.09643906 -6.15059534 59.48576695 -5 55 C-4.87109375 54.26652344 -4.7421875 53.53304687 -4.609375 52.77734375 C-4.40828125 52.19082031 -4.2071875 51.60429688 -4 51 C-2.515 50.505 -2.515 50.505 -1 50 C-0.19881381 36.4397875 0.10477757 23.06331426 -0.68139648 9.49414062 C-0.73497314 8.53958984 -0.7885498 7.58503906 -0.84375 6.6015625 C-0.92399414 5.33820068 -0.92399414 5.33820068 -1.00585938 4.04931641 C-1 2 -1 2 0 0 Z M0 52 C-0.33 52.66 -0.66 53.32 -1 54 C-0.34 54 0.32 54 1 54 C0.67 53.34 0.34 52.68 0 52 Z " fill="#3E272F" transform="translate(571,498)"/>
<path d="M0 0 C0.99 0.33 1.98 0.66 3 1 C2.6282666 1.54188965 2.2565332 2.0837793 1.87353516 2.64208984 C-8.79893748 18.26106444 -18.22889059 34.02077835 -26.4375 51.0625 C-26.8509668 51.91908203 -27.26443359 52.77566406 -27.69042969 53.65820312 C-30.20970038 58.99680653 -32.27167716 64.35550695 -34 70 C-34.33 70 -34.66 70 -35 70 C-35.91073015 52.37231195 -35.91073015 52.37231195 -30.99609375 45.56640625 C-30.66738281 45.04949219 -30.33867187 44.53257812 -30 44 C-30.33 43.34 -30.66 42.68 -31 42 C-30.67 41.01 -30.34 40.02 -30 39 C-29.34 39 -28.68 39 -28 39 C-27.81824219 38.40832031 -27.63648438 37.81664062 -27.44921875 37.20703125 C-24.74149491 28.69505836 -24.74149491 28.69505836 -22 25 C-21.34 25 -20.68 25 -20 25 C-19.896875 24.360625 -19.79375 23.72125 -19.6875 23.0625 C-19.460625 22.381875 -19.23375 21.70125 -19 21 C-18.01 20.67 -17.02 20.34 -16 20 C-15.95875 19.0925 -15.9175 18.185 -15.875 17.25 C-14.7147801 12.94061181 -12.75562196 12.19077947 -9 10 C-8.67 9.34 -8.34 8.68 -8 8 C-7.34 8 -6.68 8 -6 8 C-5.67 6.68 -5.34 5.36 -5 4 C-3.68 4 -2.36 4 -1 4 C-0.67 2.68 -0.34 1.36 0 0 Z " fill="#62414C" transform="translate(501,441)"/>
<path d="M0 0 C0.33 0 0.66 0 1 0 C1.70036119 6.69095064 2.23231375 13.27300188 2 20 C1.96003906 21.25039063 1.92007813 22.50078125 1.87890625 23.7890625 C1.81723098 25.15113963 1.75341829 26.51312162 1.6875 27.875 C1.60048828 29.78925781 1.60048828 29.78925781 1.51171875 31.7421875 C1 35 1 35 -0.54296875 36.9453125 C-1.02378906 37.29335938 -1.50460937 37.64140625 -2 38 C-2.33 37.67 -2.66 37.34 -3 37 C-3.103125 38.03125 -3.20625 39.0625 -3.3125 40.125 C-4.16252618 44.91605663 -5.53491345 48.53491345 -9 52 C-9.99 52 -10.98 52 -12 52 C-12.0928125 52.8971875 -12.0928125 52.8971875 -12.1875 53.8125 C-13.34326547 56.92417627 -15.10332828 57.48583069 -18 59 C-18.886875 59.556875 -19.77375 60.11375 -20.6875 60.6875 C-23 62 -23 62 -25 62 C-25.33 62.99 -25.66 63.98 -26 65 C-29.465 65.495 -29.465 65.495 -33 66 C-33.33 66.99 -33.66 67.98 -34 69 C-37.63 69 -41.26 69 -45 69 C-45.33 68.34 -45.66 67.68 -46 67 C-45.02160156 66.70867187 -44.04320312 66.41734375 -43.03515625 66.1171875 C-27.71834421 61.39349362 -16.72849766 53.63380875 -8.8125 39.3125 C-3.97165994 28.90165569 -3.58020874 18.24107713 -4 7 C-2.68 8.32 -1.36 9.64 0 11 C0 7.37 0 3.74 0 0 Z " fill="#603F4A" transform="translate(570,513)"/>
<path d="M0 0 C2.97 0.99 5.94 1.98 9 3 C9 2.34 9 1.68 9 1 C11.375 1.1875 11.375 1.1875 14 2 C15.3125 4.5625 15.3125 4.5625 16 7 C16.66 7 17.32 7 18 7 C18.98248524 11.0527516 19.08159574 14.83861737 19 19 C16.78358334 16.86274108 14.78762592 14.73140926 12.875 12.3125 C10.8963903 9.8722147 10.07707235 9.1481239 7.01171875 8.7265625 C2.51972685 8.53027378 0.65030695 8.48517367 -3 11.375 C-4.97988444 13.80449083 -4.97988444 13.80449083 -6 16 C-6.66 16.144375 -7.32 16.28875 -8 16.4375 C-8.66 16.623125 -9.32 16.80875 -10 17 C-10.33 17.99 -10.66 18.98 -11 20 C-12.32 20 -13.64 20 -15 20 C-15.33 21.32 -15.66 22.64 -16 24 C-16.66 24 -17.32 24 -18 24 C-18.66 25.32 -19.32 26.64 -20 28 C-20 24.80389448 -19.45328458 23.58282374 -18 20.8125 C-17.62875 20.09707031 -17.2575 19.38164062 -16.875 18.64453125 C-16.58625 18.10183594 -16.2975 17.55914062 -16 17 C-15.34 17 -14.68 17 -14 17 C-13.67 16.01 -13.34 15.02 -13 14 C-10.9375 12.3125 -10.9375 12.3125 -9 11 C-10.32 11.33 -11.64 11.66 -13 12 C-10.76380381 7.40337449 -8.54731855 6.13445565 -4 4 C-1.68581709 1.93832739 -1.68581709 1.93832739 0 0 Z " fill="#3D272F" transform="translate(511,425)"/>
<path d="M0 0 C0.33 0 0.66 0 1 0 C2.46357058 4.57365805 3.11261127 8.15771556 3 13 C3.33 13.66 3.66 14.32 4 15 C4.07017429 18.08766857 3.99687882 21.16230137 3.9375 24.25 C3.80344194 26.96253013 3.80344194 26.96253013 5 29 C5.66 28.34 6.32 27.68 7 27 C8.00821159 29.68856424 8.22736824 31.41703215 7.17578125 34.11328125 C6.16604698 36.10794931 5.11893353 38.0646772 4 40 C4.99 40.33 5.98 40.66 7 41 C6.71125 41.556875 6.4225 42.11375 6.125 42.6875 C4.95582094 44.99884441 4.95582094 44.99884441 4.0625 47.5 C2.9744934 50.06001553 1.69748991 51.80707045 0 54 C-0.52980469 54.70640625 -1.05960938 55.4128125 -1.60546875 56.140625 C-3.0703125 58.09375 -4.53515625 60.046875 -6 62 C-6 58.51394686 -5.74439973 55.4118321 -5 52 C-2.953125 50.78515625 -2.953125 50.78515625 -1 50 C-0.19881381 36.4397875 0.10477757 23.06331426 -0.68139648 9.49414062 C-0.73497314 8.53958984 -0.7885498 7.58503906 -0.84375 6.6015625 C-0.92399414 5.33820068 -0.92399414 5.33820068 -1.00585938 4.04931641 C-1 2 -1 2 0 0 Z " fill="#402830" transform="translate(571,498)"/>
<path d="M0 0 C1.71355038 5.14065113 0.06320331 9.18585895 -2 14 C-1.34 14 -0.68 14 0 14 C-0.23771118 15.07350708 -0.23771118 15.07350708 -0.48022461 16.16870117 C-0.98456957 18.91594802 -1.20226167 21.5123923 -1.31640625 24.30078125 C-1.35830078 25.27724609 -1.40019531 26.25371094 -1.44335938 27.25976562 C-1.48267578 28.26716797 -1.52199219 29.27457031 -1.5625 30.3125 C-1.60568359 31.33923828 -1.64886719 32.36597656 -1.69335938 33.42382812 C-1.79906825 35.94909569 -1.90116468 38.47445562 -2 41 C-5.83508741 35.24736889 -5.11884965 28.68199149 -5 22 C-5.66 22.33 -6.32 22.66 -7 23 C-7.47179325 25.38165593 -7.47179325 25.38165593 -7.625 28.1875 C-7.69847656 29.1775 -7.77195312 30.1675 -7.84765625 31.1875 C-8.00709402 34.13096647 -8.07965371 37.05281269 -8 40 C-8.99 39.34 -9.98 38.68 -11 38 C-11.02972365 35.24164531 -10.91102221 32.72674504 -10.625 30 C-9.85344504 24.86447583 -9.85344504 24.86447583 -11 20 C-10.2073362 17.6756475 -9.3581663 15.49254179 -8.375 13.25 C-8.10155762 12.61690918 -7.82811523 11.98381836 -7.54638672 11.33154297 C-5.55002429 6.86602584 -3.4420304 3.4420304 0 0 Z " fill="#3F2B30" transform="translate(462,501)"/>
<path d="M0 0 C0.66 0.33 1.32 0.66 2 1 C-0.39509338 3.89932357 -2.31245243 4.50168276 -6 5 C-3.375 1.125 -3.375 1.125 0 0 Z M-9 6 C-8.34 6.33 -7.68 6.66 -7 7 C-10.38063018 12.32586517 -14.32819172 16.72387243 -18.66015625 21.31640625 C-20.81078281 23.78298463 -22.38886687 26.16630115 -24 29 C-25.31037934 30.68477344 -26.63823078 32.35648543 -28 34 C-28 33.01 -28 32.02 -28 31 C-28.3062434 29.66018514 -28.63451555 28.32488113 -29 27 C-28.01 26.67 -27.02 26.34 -26 26 C-24.93283296 24.20067421 -24.93283296 24.20067421 -24 22 C-23.484375 21.154375 -22.96875 20.30875 -22.4375 19.4375 C-20.88141236 16.99345222 -20.88141236 16.99345222 -20 14 C-19.01 14 -18.02 14 -17 14 C-16.79375 13.4225 -16.5875 12.845 -16.375 12.25 C-14.50249112 9.18589456 -12.03041481 7.84460032 -9 6 Z M-31 33 C-30.01 33.495 -30.01 33.495 -29 34 C-29.99 34.495 -29.99 34.495 -31 35 C-31 34.34 -31 33.68 -31 33 Z " fill="#38242A" transform="translate(507,427)"/>
<path d="M0 0 C0 3.81136094 -1.02124244 6.78725709 -3 10 C-8.02564103 14 -8.02564103 14 -11 14 C-11.33 14.99 -11.66 15.98 -12 17 C-14.31 17.33 -16.62 17.66 -19 18 C-19.33 18.99 -19.66 19.98 -20 21 C-23.63 21 -27.26 21 -31 21 C-31.33 20.34 -31.66 19.68 -32 19 C-30.53240234 18.56300781 -30.53240234 18.56300781 -29.03515625 18.1171875 C-18.65560955 14.91614272 -10.50519005 11.1674127 -3 3 C-2 2 -1 1 0 0 Z " fill="#6B4954" transform="translate(556,561)"/>
<path d="M0 0 C0.33 0 0.66 0 1 0 C2.46357058 4.57365805 3.11261127 8.15771556 3 13 C3.33 13.66 3.66 14.32 4 15 C4.07017429 18.08766857 3.99687882 21.16230137 3.9375 24.25 C3.80344194 26.96253013 3.80344194 26.96253013 5 29 C5.66 28.34 6.32 27.68 7 27 C7.94721072 29.60482949 8.30222393 31.30674701 7.17578125 33.890625 C6.17063275 35.62582873 5.0893855 37.31640423 4 39 C3.67 39 3.34 39 3 39 C2.86722656 37.7934375 2.73445312 36.586875 2.59765625 35.34375 C2.41930075 33.72916336 2.24091364 32.11458021 2.0625 30.5 C1.97548828 29.70851563 1.88847656 28.91703125 1.79882812 28.1015625 C1.53682965 25.73387257 1.26918841 23.36688234 1 21 C0.9160498 20.23816406 0.83209961 19.47632813 0.74560547 18.69140625 C0.34041924 14.71989352 0.34041924 14.71989352 -1 11 C-1.09499503 9.50243129 -1.12987198 8.00057068 -1.125 6.5 C-1.12757813 5.7059375 -1.13015625 4.911875 -1.1328125 4.09375 C-1 2 -1 2 0 0 Z " fill="#452B35" transform="translate(571,498)"/>
<path d="M0 0 C2.31 0.33 4.62 0.66 7 1 C7.37125 2.175625 7.37125 2.175625 7.75 3.375 C9.15389099 6.32317108 10.00675737 6.9024777 13 8 C13 8.66 13 9.32 13 10 C13.66 10.66 14.32 11.32 15 12 C14.01 13.98 13.02 15.96 12 18 C12.66 18 13.32 18 14 18 C14 19.32 14 20.64 14 22 C13.34 22 12.68 22 12 22 C11.20335937 20.46279297 11.20335937 20.46279297 10.390625 18.89453125 C9.6773651 17.53370644 8.96380762 16.17303758 8.25 14.8125 C7.90195312 14.13896484 7.55390625 13.46542969 7.1953125 12.77148438 C5.11346993 8.81983875 2.82489371 5.48021815 0 2 C0 1.34 0 0.68 0 0 Z " fill="#76505E" transform="translate(538,457)"/>
<path d="M0 0 C1.90234375 1.109375 1.90234375 1.109375 3.9375 2.75 C4.60652344 3.28109375 5.27554687 3.8121875 5.96484375 4.359375 C6.97224609 5.17148437 6.97224609 5.17148437 8 6 C8.74378906 6.52078125 9.48757813 7.0415625 10.25390625 7.578125 C10.83011719 8.04734375 11.40632813 8.5165625 12 9 C12 9.66 12 10.32 12 11 C8.30581799 12.231394 5.7943739 11.64432764 2 11 C2 10.34 2 9.68 2 9 C0.68 8.67 -0.64 8.34 -2 8 C-2.33 5.69 -2.66 3.38 -3 1 C-2.01 0.67 -1.02 0.34 0 0 Z " fill="#63424D" transform="translate(476,564)"/>
<path d="M0 0 C0.33 0 0.66 0 1 0 C1.10957031 1.01320313 1.21914063 2.02640625 1.33203125 3.0703125 C1.49159893 4.42194461 1.65178833 5.77350343 1.8125 7.125 C1.88275391 7.79015625 1.95300781 8.4553125 2.02539062 9.140625 C2.58063789 13.6714427 3.91874237 16.97938867 6 21 C5.1875 23.375 5.1875 23.375 4 25 C4.99 25 5.98 25 7 25 C7 27.97 7 30.94 7 34 C-1.63130094 22.85546731 -1.40983123 13.47016968 0 0 Z " fill="#694552" transform="translate(554,466)"/>
<path d="M0 0 C0.66 1.32 1.32 2.64 2 4 C2.66 4 3.32 4 4 4 C4 4.66 4 5.32 4 6 C2.53125 7.4453125 2.53125 7.4453125 0.5 9.125 C-3.90524012 12.8615876 -7.96599235 16.86943366 -12 21 C-12.33 20.34 -12.66 19.68 -13 19 C-8.76175634 12.59530921 -4.51760578 6.21170794 0 0 Z " fill="#15AC8F" transform="translate(324,454)"/>
<path d="M0 0 C1 2 1 2 0.25 4.75 C-1 8 -1 8 -2.625 11 C-4.21982874 13.90473458 -4.21982874 13.90473458 -3.9375 17 C-4.02101942 21.00893221 -5.55214597 22.90418461 -8 26 C-8.66 26.33 -9.32 26.66 -10 27 C-10 25.68 -10 24.36 -10 23 C-10.66 23.33 -11.32 23.66 -12 24 C-11.00441959 21.31959121 -9.98481703 18.97631456 -8.4375 16.5625 C-6.82141162 13.68164679 -6.37908032 11.26009076 -6 8 C-5.34 8 -4.68 8 -4 8 C-3.71125 7.05125 -3.4225 6.1025 -3.125 5.125 C-2 2 -2 2 0 0 Z " fill="#3A262C" transform="translate(468,478)"/>
<path d="M0 0 C-0.66 1.32 -1.32 2.64 -2 4 C-3.0209375 3.6596875 -3.0209375 3.6596875 -4.0625 3.3125 C-8.00747757 2.89282154 -10.40957107 4.43326738 -14 6 C-16.4375 5.6875 -16.4375 5.6875 -18 5 C-18 4.34 -18 3.68 -18 3 C-18.763125 3.165 -19.52625 3.33 -20.3125 3.5 C-23 4 -23 4 -26 4 C-26.33 3.01 -26.66 2.02 -27 1 C-23.81265063 0.83036895 -20.62510059 0.66483749 -17.4375 0.5 C-16.54224609 0.45230469 -15.64699219 0.40460937 -14.72460938 0.35546875 C-9.80829229 0.10334993 -4.9226912 -0.0540213 0 0 Z " fill="#442B32" transform="translate(530,586)"/>
<path d="M0 0 C0.33 0.99 0.66 1.98 1 3 C-0.25 5.3125 -0.25 5.3125 -2 8 C-3.0150089 9.99242489 -4.01873444 11.99074195 -5 14 C-5.66 14 -6.32 14 -7 14 C-6.71125 14.66 -6.4225 15.32 -6.125 16 C-5.94985136 20.20356738 -7.82733017 22.01624679 -10.359375 25.23046875 C-12 27 -12 27 -15 29 C-14.71582648 23.60070307 -12.41979564 20.04739091 -9.62109375 15.59765625 C-7.66922156 12.46995744 -5.91914506 9.25490249 -4.17578125 6.0078125 C-2.92663841 3.87472472 -1.51684218 1.94960118 0 0 Z " fill="#4F333B" transform="translate(478,466)"/>
<path d="M0 0 C-0.639375 0.309375 -1.27875 0.61875 -1.9375 0.9375 C-3.93610821 1.8345163 -3.93610821 1.8345163 -5 3 C-3.906875 2.95875 -2.81375 2.9175 -1.6875 2.875 C2 3 2 3 5 5 C1.23699626 6.25433458 -2.27210909 6.10695422 -6.1875 6.0625 C-6.93708984 6.05798828 -7.68667969 6.05347656 -8.45898438 6.04882812 C-10.30602383 6.03706354 -12.15302213 6.01912865 -14 6 C-14 5.34 -14 4.68 -14 4 C-14.99 3.67 -15.98 3.34 -17 3 C-11.10261508 0.70657253 -6.33393082 -0.34548714 0 0 Z " fill="#53D7B0" transform="translate(465,306)"/>
<path d="M0 0 C0.99 0.33 1.98 0.66 3 1 C1.35 2.65 -0.3 4.3 -2 6 C-2.66 5.67 -3.32 5.34 -4 5 C-3.67 5.99 -3.34 6.98 -3 8 C-4.375 8.91666667 -5.75 9.83333333 -7.125 10.75 C-7.94613281 11.29785156 -8.76726563 11.84570312 -9.61328125 12.41015625 C-11.51009974 13.67366709 -13.41065648 14.9315656 -15.3125 16.1875 C-17.59877157 17.72940408 -19.81484244 19.31910957 -22 21 C-20.46518706 17.19331705 -18.13477919 15.1037511 -15.0625 12.4375 C-11.643462 9.47876037 -11.643462 9.47876037 -8.37890625 6.35546875 C-6.18466117 4.19851962 -3.56930058 2.67563081 -1 1 C-0.67 0.67 -0.34 0.34 0 0 Z " fill="#4B313A" transform="translate(554,569)"/>
<path d="M0 0 C0.99 0.33 1.98 0.66 3 1 C4.125 4.3125 4.125 4.3125 5 8 C5.268125 8.70125 5.53625 9.4025 5.8125 10.125 C6.10866567 13.08665669 4.72913565 14.6944858 3 17 C2.34 17 1.68 17 1 17 C0.46605821 15.5882217 -0.05165104 14.17029756 -0.5625 12.75 C-0.85253906 11.96109375 -1.14257812 11.1721875 -1.44140625 10.359375 C-2.05437993 7.77031134 -1.84270559 6.48598148 -1 4 C-0.814375 3.2575 -0.62875 2.515 -0.4375 1.75 C-0.293125 1.1725 -0.14875 0.595 0 0 Z " fill="#704B59" transform="translate(563,495)"/>
<path d="M0 0 C1.32 0.33 2.64 0.66 4 1 C3.25 3.4375 3.25 3.4375 2 6 C-0.0625 6.625 -0.0625 6.625 -2 7 C-2.33 7.99 -2.66 8.98 -3 10 C-4.32 10 -5.64 10 -7 10 C-7.33 11.32 -7.66 12.64 -8 14 C-8.66 14 -9.32 14 -10 14 C-10.66 15.32 -11.32 16.64 -12 18 C-12 14.80389448 -11.45328458 13.58282374 -10 10.8125 C-9.62875 10.09707031 -9.2575 9.38164062 -8.875 8.64453125 C-8.58625 8.10183594 -8.2975 7.55914062 -8 7 C-7.34 7 -6.68 7 -6 7 C-5.67 6.01 -5.34 5.02 -5 4 C-3.68352881 3.30062468 -2.34977849 2.63270867 -1 2 C-0.67 1.34 -0.34 0.68 0 0 Z " fill="#583B45" transform="translate(503,435)"/>
<path d="M0 0 C1.50559539 1.96382007 2.89131683 3.78263366 4 6 C4.99 6.33 5.98 6.66 7 7 C8.4783226 9.95664519 8.06032783 12.74229737 8 16 C5.79589989 13.87461775 3.99455116 11.99119802 2.375 9.375 C-1.16511551 5.83488449 -5.1602429 5.6188239 -10 5 C-10 4.67 -10 4.34 -10 4 C-5.545 3.505 -5.545 3.505 -1 3 C-0.67 2.01 -0.34 1.02 0 0 Z " fill="#5F464F" transform="translate(522,428)"/>
<path d="M0 0 C0.81210937 0.29003906 1.62421875 0.58007812 2.4609375 0.87890625 C3.27820313 1.16636719 4.09546875 1.45382812 4.9375 1.75 C5.56398438 1.97816406 6.19046875 2.20632813 6.8359375 2.44140625 C6.8359375 1.78140625 6.8359375 1.12140625 6.8359375 0.44140625 C9.2109375 0.62890625 9.2109375 0.62890625 11.8359375 1.44140625 C13.1484375 4.00390625 13.1484375 4.00390625 13.8359375 6.44140625 C14.4959375 6.44140625 15.1559375 6.44140625 15.8359375 6.44140625 C15.8359375 7.43140625 15.8359375 8.42140625 15.8359375 9.44140625 C14.0234375 9.25390625 14.0234375 9.25390625 11.8359375 8.44140625 C10.0859375 5.87890625 10.0859375 5.87890625 8.8359375 3.44140625 C8.5059375 4.10140625 8.1759375 4.76140625 7.8359375 5.44140625 C5.8559375 5.44140625 3.8759375 5.44140625 1.8359375 5.44140625 C1.8359375 4.78140625 1.8359375 4.12140625 1.8359375 3.44140625 C1.0315625 3.31765625 0.2271875 3.19390625 -0.6015625 3.06640625 C-1.4471875 2.86015625 -2.2928125 2.65390625 -3.1640625 2.44140625 C-3.4940625 1.78140625 -3.8240625 1.12140625 -4.1640625 0.44140625 C-2.1640625 -0.55859375 -2.1640625 -0.55859375 0 0 Z " fill="#352229" transform="translate(513.1640625,425.55859375)"/>
<path d="M0 0 C0.99 0 1.98 0 3 0 C2.84152588 0.71567139 2.68305176 1.43134277 2.51977539 2.16870117 C2.01543043 4.91594802 1.79773833 7.5123923 1.68359375 10.30078125 C1.64169922 11.27724609 1.59980469 12.25371094 1.55664062 13.25976562 C1.51732422 14.26716797 1.47800781 15.27457031 1.4375 16.3125 C1.39431641 17.33923828 1.35113281 18.36597656 1.30664062 19.42382812 C1.20093175 21.94909569 1.09883532 24.47445562 1 27 C-2.43663682 21.84504477 -2.15732066 16.37854829 -2.1875 10.3125 C-2.20167969 9.00925781 -2.21585937 7.70601562 -2.23046875 6.36328125 C-2 3 -2 3 0 0 Z " fill="#573A44" transform="translate(459,515)"/>
<path d="M0 0 C3.07111536 4.60667304 2.5513823 9.38254825 2.75 14.8125 C2.80542969 15.89337891 2.86085938 16.97425781 2.91796875 18.08789062 C3.13643958 23.48014788 3.2814309 27.97207728 1 33 C0.67 33 0.34 33 0 33 C0 22.11 0 11.22 0 0 Z " fill="#50333E" transform="translate(571,511)"/>
<path d="M0 0 C1.32 0.33 2.64 0.66 4 1 C4 7.27 4 13.54 4 20 C3.34 20 2.68 20 2 20 C0.88176185 17.76352369 0.80603939 16.35108471 0.68359375 13.8671875 C0.62075195 12.65869141 0.62075195 12.65869141 0.55664062 11.42578125 C0.51732422 10.58402344 0.47800781 9.74226562 0.4375 8.875 C0.39431641 8.02550781 0.35113281 7.17601562 0.30664062 6.30078125 C0.20045764 4.20071777 0.09971503 2.10038052 0 0 Z " fill="#483038" transform="translate(465,555)"/>
<path d="M0 0 C0.66 0.66 1.32 1.32 2 2 C0.7934375 2.37125 0.7934375 2.37125 -0.4375 2.75 C-3.171081 3.72238859 -3.171081 3.72238859 -3.8125 6.125 C-3.874375 6.74375 -3.93625 7.3625 -4 8 C-4.66 8 -5.32 8 -6 8 C-6.31453125 8.69867188 -6.6290625 9.39734375 -6.953125 10.1171875 C-7.38109375 11.02726562 -7.8090625 11.93734375 -8.25 12.875 C-8.66765625 13.77992188 -9.0853125 14.68484375 -9.515625 15.6171875 C-11.12441692 18.19972189 -12.19219328 18.95607186 -15 20 C-12.03251865 11.36732698 -7.06828155 5.61253125 0 0 Z " fill="#4C303A" transform="translate(501,435)"/>
<path d="M0 0 C4 4 4 4 4.53125 7.12890625 C4.51578125 8.82853516 4.51578125 8.82853516 4.5 10.5625 C4.5103125 11.69816406 4.520625 12.83382812 4.53125 14.00390625 C4 17 4 17 0 20 C0 13.4 0 6.8 0 0 Z " fill="#6C4755" transform="translate(566,520)"/>
<path d="M0 0 C0.66 0.33 1.32 0.66 2 1 C0.23570801 5.97209562 -2.3939166 10.43438061 -5 15 C-5.33 15 -5.66 15 -6 15 C-6.34896198 10.11453227 -5.51700864 7.1950144 -3 3 C-1.3125 1.125 -1.3125 1.125 0 0 Z " fill="#74505D" transform="translate(488,460)"/>
<path d="M0 0 C-1.49170266 4.9723422 -3.60457417 9.41845739 -6 14 C-7.17398176 9.60703599 -7.94893352 5.80297369 -5.75 1.625 C-4 0 -4 0 0 0 Z " fill="#7A5762" transform="translate(481,477)"/>
<path d="M0 0 C0.99 0 1.98 0 3 0 C1.6744419 3.62276315 0.05653045 6.63505348 -2.125 9.8125 C-2.66382813 10.60269531 -3.20265625 11.39289063 -3.7578125 12.20703125 C-4.16773438 12.79871094 -4.57765625 13.39039063 -5 14 C-5.66 13.01 -6.32 12.02 -7 11 C-5.78329471 8.2347607 -4.24570702 5.74946103 -2.5625 3.25 C-2.15128906 2.63640625 -1.74007813 2.0228125 -1.31640625 1.390625 C-0.88199219 0.93171875 -0.44757813 0.4728125 0 0 Z " fill="#765461" transform="translate(497,446)"/>
<path d="M0 0 C0 5.32935672 -4.05221957 9.8106344 -7.51171875 13.69921875 C-8.64366061 14.83116061 -9.81707392 15.92144975 -11 17 C-10.48205375 12.56159904 -8.90551072 10.21074609 -6.0625 6.8125 C-5.35222656 5.95269531 -4.64195312 5.09289062 -3.91015625 4.20703125 C-2 2 -2 2 0 0 Z " fill="#38242A" transform="translate(478,461)"/>
<path d="M0 0 C2.31 0.33 4.62 0.66 7 1 C8.17571451 4.67410785 8.07366746 8.16929183 8 12 C5.86088258 9.94870558 4.04262537 7.84304969 2.3125 5.4375 C1.65701172 4.53837891 1.65701172 4.53837891 0.98828125 3.62109375 C0 2 0 2 0 0 Z " fill="#7A5763" transform="translate(538,457)"/>
<path d="M0 0 C3.45281166 1.15093722 4.38082163 2.3205993 6.6875 5.0625 C7.31011719 5.79597656 7.93273437 6.52945313 8.57421875 7.28515625 C9.04472656 7.85105469 9.51523437 8.41695312 10 9 C9.34 9.66 8.68 10.32 8 11 C5.03 8.69 2.06 6.38 -1 4 C-0.67 2.68 -0.34 1.36 0 0 Z " fill="#802F65" transform="translate(460,693)"/>
<path d="M0 0 C0.33 0.99 0.66 1.98 1 3 C0.07421875 4.68359375 0.07421875 4.68359375 -1.3125 6.4375 C-3.17457354 8.87888531 -4.75613113 11.1730253 -6 14 C-6.66 13.67 -7.32 13.34 -8 13 C-6.53181332 9.89257577 -4.79975 7.09528261 -2.875 4.25 C-2.33617187 3.45078125 -1.79734375 2.6515625 -1.2421875 1.828125 C-0.62730469 0.92320312 -0.62730469 0.92320312 0 0 Z M-8 14 C-7.67 14.66 -7.34 15.32 -7 16 C-7.9375 18.125 -7.9375 18.125 -9 20 C-9.66 19.67 -10.32 19.34 -11 19 C-10.01 17.35 -9.02 15.7 -8 14 Z " fill="#452C33" transform="translate(478,463)"/>
<path d="M0 0 C0.99 1.32 1.98 2.64 3 4 C-1.29 4 -5.58 4 -10 4 C-10 3.01 -10 2.02 -10 1 C-6.59750576 -0.04692131 -3.5483045 -0.3774792 0 0 Z " fill="#3ED39E" transform="translate(499,284)"/>
<path d="M0 0 C4.62 0.99 9.24 1.98 14 3 C14 3.33 14 3.66 14 4 C12.04310341 4.22142255 10.08438048 4.4267568 8.125 4.625 C6.48917969 4.79902344 6.48917969 4.79902344 4.8203125 4.9765625 C3.42425781 4.98816406 3.42425781 4.98816406 2 5 C1.34 4.34 0.68 3.68 0 3 C0 2.01 0 1.02 0 0 Z " fill="#72505B" transform="translate(494,577)"/>
<path d="M0 0 C0 3.80345877 -1.13786331 4.77701015 -3.5 7.6875 C-4.1496875 8.49574219 -4.799375 9.30398438 -5.46875 10.13671875 C-5.9740625 10.75160156 -6.479375 11.36648438 -7 12 C-7.66 11.34 -8.32 10.68 -9 10 C-8.34 8.68 -7.68 7.36 -7 6 C-6.01 6 -5.02 6 -4 6 C-3.71125 5.38125 -3.4225 4.7625 -3.125 4.125 C-2 2 -2 2 0 0 Z " fill="#2D1C22" transform="translate(494,435)"/>
<path d="M0 0 C3 -0.375 3 -0.375 6 0 C6.66 0.99 7.32 1.98 8 3 C3.545 3.495 3.545 3.495 -1 4 C-1 5.98 -1 7.96 -1 10 C-1.33 10 -1.66 10 -2 10 C-2.25 3.375 -2.25 3.375 0 0 Z " fill="#31BD8C" transform="translate(490,281)"/>
<path d="M0 0 C4.13621084 3.3810038 7.81316569 6.66590534 11 11 C8 11 8 11 5.5 8.625 C4.675 7.75875 3.85 6.8925 3 6 C2.01 5.34 1.02 4.68 0 4 C0 2.68 0 1.36 0 0 Z " fill="#3BCE9B" transform="translate(510,296)"/>
<path d="M0 0 C0.66 0 1.32 0 2 0 C2 5.61 2 11.22 2 17 C1.01 16.34 0.02 15.68 -1 15 C-0.67 10.05 -0.34 5.1 0 0 Z " fill="#352227" transform="translate(452,524)"/>
<path d="M0 0 C0.99 0.33 1.98 0.66 3 1 C1.68 4.96 0.36 8.92 -1 13 C-1.33 13 -1.66 13 -2 13 C-2.05416188 11.39620659 -2.09286638 9.79188594 -2.125 8.1875 C-2.14820313 7.29417969 -2.17140625 6.40085937 -2.1953125 5.48046875 C-2 3 -2 3 0 0 Z " fill="#72515C" transform="translate(468,498)"/>
<path d="M0 0 C2.6875 -0.3125 2.6875 -0.3125 5 0 C-1.15034169 7.48291572 -1.15034169 7.48291572 -5 10 C-3.66659064 6.41005174 -2.34884529 3.04479945 0 0 Z " fill="#14A085" transform="translate(316,465)"/>
<path d="M0 0 C2.0625 0.4375 2.0625 0.4375 4 1 C3.49477778 5.37859255 0.82172778 7.81651224 -2 11 C-2 2 -2 2 0 0 Z " fill="#4C303B" transform="translate(567,549)"/>
<path d="M0 0 C1.40070613 4.20211839 0.76587588 7.33309368 -1.0625 11.3125 C-1.5265625 12.1478125 -1.5265625 12.1478125 -2 13 C-2.99 13 -3.98 13 -5 13 C-4.67 12.443125 -4.34 11.88625 -4 11.3125 C-2.82407423 9.03721817 -2.82407423 9.03721817 -3.0625 6.5 C-2.98536302 3.41452074 -2.01275083 2.26434468 0 0 Z " fill="#51353D" transform="translate(462,501)"/>
<path d="M0 0 C0.99 0.33 1.98 0.66 3 1 C2.01 1.33 1.02 1.66 0 2 C-0.2165625 2.928125 -0.2165625 2.928125 -0.4375 3.875 C-1 6 -1 6 -2.875 7.8125 C-3.57625 8.204375 -4.2775 8.59625 -5 9 C-5.99 8.67 -6.98 8.34 -8 8 C-5.36 5.36 -2.72 2.72 0 0 Z " fill="#CB6182" transform="translate(733,530)"/>
<path d="M0 0 C1.65 0 3.3 0 5 0 C4.67 1.65 4.34 3.3 4 5 C2.68 5.33 1.36 5.66 0 6 C-1.24546405 3.50907189 -0.7767578 2.58919267 0 0 Z " fill="#E16489" transform="translate(687,536)"/>
<path d="M0 0 C0.99 0.33 1.98 0.66 3 1 C1.29374499 3.78388975 0.52373261 4.85384206 -2.6875 5.75 C-3.8321875 5.87375 -3.8321875 5.87375 -5 6 C-5 5.34 -5 4.68 -5 4 C-3.68 4 -2.36 4 -1 4 C-0.67 2.68 -0.34 1.36 0 0 Z M-8 8 C-7.34 8.33 -6.68 8.66 -6 9 C-7.65 10.65 -9.3 12.3 -11 14 C-10 12 -9 10 -8 8 Z " fill="#694954" transform="translate(501,441)"/>
<path d="M0 0 C1.32 0 2.64 0 4 0 C2.8141763 3.37503669 1.72426311 5.64722731 -1 8 C-1.66 7.67 -2.32 7.34 -3 7 C-2.01 4.69 -1.02 2.38 0 0 Z " fill="#169468" transform="translate(548,348)"/>
<path d="M0 0 C0.99 1.485 0.99 1.485 2 3 C4.05925139 3.72382467 4.05925139 3.72382467 6 4 C5.34 5.32 4.68 6.64 4 8 C2.68 7.67 1.36 7.34 0 7 C0 4.69 0 2.38 0 0 Z " fill="#28C19C" transform="translate(295,480)"/>
<path d="M0 0 C2.475 0.495 2.475 0.495 5 1 C5 1.99 5 2.98 5 4 C5.66 4.66 6.32 5.32 7 6 C6.01 6.99 5.02 7.98 4 9 C1.47740939 7.02579865 1.0070192 6.03254358 0.3125 2.8125 C0.209375 1.884375 0.10625 0.95625 0 0 Z " fill="#62404C" transform="translate(546,463)"/>
<path d="M0 0 C0.66 0.66 1.32 1.32 2 2 C1.75 4.125 1.75 4.125 1 7 C0.64532324 8.43737423 0.29117992 9.87488017 -0.0625 11.3125 C-0.371875 12.529375 -0.68125 13.74625 -1 15 C-1.33 15 -1.66 15 -2 15 C-2.19392201 9.47322267 -1.7479503 5.24385089 0 0 Z " fill="#20B795" transform="translate(300,459)"/>
<path d="M0 0 C4.62 0.99 9.24 1.98 14 3 C14 3.33 14 3.66 14 4 C10.04 4 6.08 4 2 4 C1.34 2.68 0.68 1.36 0 0 Z " fill="#CB3667" transform="translate(560,297)"/>
<path d="M0 0 C2.64 0 5.28 0 8 0 C8 0.66 8 1.32 8 2 C3.56923077 4.09230769 3.56923077 4.09230769 0.6875 3.625 C0.130625 3.41875 -0.42625 3.2125 -1 3 C-0.67 2.01 -0.34 1.02 0 0 Z " fill="#3D262D" transform="translate(513,588)"/>
<path d="M0 0 C0.33 0 0.66 0 1 0 C1.2500201 3.00024116 1.28636724 4.55743244 -0.375 7.125 C-0.91125 7.74375 -1.4475 8.3625 -2 9 C-2.99 10.485 -2.99 10.485 -4 12 C-4.66 11.67 -5.32 11.34 -6 11 C-4.02 7.37 -2.04 3.74 0 0 Z " fill="#22C09F" transform="translate(325,402)"/>
<path d="M0 0 C1 3 1 3 0 6 C-0.99 6.66 -1.98 7.32 -3 8 C-3.33 8.99 -3.66 9.98 -4 11 C-4.66 11 -5.32 11 -6 11 C-5.39305845 7.84669446 -4.3583335 5.81111133 -2.4375 3.25 C-1.98246094 2.63640625 -1.52742188 2.0228125 -1.05859375 1.390625 C-0.70925781 0.93171875 -0.35992187 0.4728125 0 0 Z " fill="#52343D" transform="translate(485,455)"/>
<path d="M0 0 C0 0.66 0 1.32 0 2 C1.32 2.33 2.64 2.66 4 3 C2.9275 3.12375 1.855 3.2475 0.75 3.375 C-2.37863615 3.89643936 -4.33480424 4.40088254 -7 6 C-7 5.01 -7 4.02 -7 3 C-4.46815512 0.64276511 -3.52809907 0 0 0 Z " fill="#49313B" transform="translate(515,429)"/>
<path d="M0 0 C0.33 0.99 0.66 1.98 1 3 C-0.125 5.125 -0.125 5.125 -2 7 C-4.6875 7.75 -4.6875 7.75 -7 8 C-6.02133662 6.85373678 -5.04205413 5.70800212 -4.0625 4.5625 C-3.51722656 3.92441406 -2.97195313 3.28632812 -2.41015625 2.62890625 C-1.63204305 1.73008851 -0.84063472 0.84063472 0 0 Z " fill="#A02958" transform="translate(717,546)"/>
<path d="M0 0 C0.66 0.33 1.32 0.66 2 1 C-0.39509338 3.89932357 -2.31245243 4.50168276 -6 5 C-3.375 1.125 -3.375 1.125 0 0 Z M-9 6 C-8.34 6.33 -7.68 6.66 -7 7 C-8.98 7.99 -8.98 7.99 -11 9 C-10.34 8.01 -9.68 7.02 -9 6 Z " fill="#311F25" transform="translate(507,427)"/>
<path d="M0 0 C0.66 0.33 1.32 0.66 2 1 C0.35 2.98 -1.3 4.96 -3 7 C-3.99 6.67 -4.98 6.34 -6 6 C-4.02 4.02 -2.04 2.04 0 0 Z " fill="#362129" transform="translate(566,564)"/>
<path d="M0 0 C1.1171875 1.734375 1.1171875 1.734375 2 4 C1.3203125 6.140625 1.3203125 6.140625 0.125 8.25 C-0.26429688 8.95640625 -0.65359375 9.6628125 -1.0546875 10.390625 C-1.36664062 10.92171875 -1.67859375 11.4528125 -2 12 C-3.12377697 8.69564916 -2.89554742 6.9493138 -1.5625 3.75 C-1.27503906 3.04359375 -0.98757813 2.3371875 -0.69140625 1.609375 C-0.46324219 1.07828125 -0.23507812 0.5471875 0 0 Z " fill="#39242B" transform="translate(577,525)"/>
<path d="M0 0 C0.66 0.99 1.32 1.98 2 3 C-1.75 8.875 -1.75 8.875 -4 10 C-3.52449439 8.51965236 -3.04448784 7.04074979 -2.5625 5.5625 C-2.29566406 4.73878906 -2.02882813 3.91507812 -1.75390625 3.06640625 C-1 1 -1 1 0 0 Z " fill="#462D34" transform="translate(462,495)"/>
<path d="M0 0 C1.32 0 2.64 0 4 0 C4 2.97 4 5.94 4 9 C1.49701566 6.06171403 0.53069061 3.82097239 0 0 Z " fill="#77505F" transform="translate(557,491)"/>
<path d="M0 0 C0.66 0.33 1.32 0.66 2 1 C-1.96 4.465 -1.96 4.465 -6 8 C-6.99 7.34 -7.98 6.68 -9 6 C-6.03 4.02 -3.06 2.04 0 0 Z " fill="#28BE9A" transform="translate(391,334)"/>
<path d="M0 0 C0.66 0.66 1.32 1.32 2 2 C1.875 4 1.875 4 1 6 C-1.0625 7.25 -1.0625 7.25 -3 8 C-1.125 2.25 -1.125 2.25 0 0 Z " fill="#1FB292" transform="translate(316,418)"/>
<path d="M0 0 C0 0.66 0 1.32 0 2 C-1.96466413 3.06775224 -3.96855359 4.06553465 -6 5 C-6.66 4.67 -7.32 4.34 -8 4 C-7.67 3.01 -7.34 2.02 -7 1 C-2.25 0 -2.25 0 0 0 Z " fill="#45CDA5" transform="translate(448,309)"/>
<path d="M0 0 C2.15377564 2.62198774 3.40072174 4.64404172 4 8 C2.68 7.67 1.36 7.34 0 7 C-0.38133299 5.0085944 -0.71325582 3.00720923 -1 1 C-0.67 0.67 -0.34 0.34 0 0 Z " fill="#71515B" transform="translate(466,547)"/>
<path d="M0 0 C3.91402949 1.26941497 5.79072873 2.51167694 8 6 C7.34 6.66 6.68 7.32 6 8 C4.02 5.36 2.04 2.72 0 0 Z " fill="#A63061" transform="translate(556,310)"/>
<path d="M0 0 C-2.75078884 0.91692961 -4.35948913 1.10886083 -7.1875 1.0625 C-9.0746875 1.0315625 -9.0746875 1.0315625 -11 1 C-10.67 0.34 -10.34 -0.32 -10 -1 C-5.95206114 -2.07945036 -3.55979782 -2.32756011 0 0 Z " fill="#59DDB8" transform="translate(470,311)"/>
<path d="M0 0 C0.66 0.33 1.32 0.66 2 1 C-0.52788007 3.79872437 -2.20411134 5.45773019 -6 6 C-4.98545548 3.4636387 -4.3146444 2.20648539 -2 0.6875 C-1.34 0.460625 -0.68 0.23375 0 0 Z " fill="#2F1D23" transform="translate(544,584)"/>
<path d="M0 0 C-0.33 0.66 -0.66 1.32 -1 2 C-3.64 1.67 -6.28 1.34 -9 1 C-5.64919071 -1.10976881 -3.77897651 -1.0497157 0 0 Z " fill="#76555F" transform="translate(536,579)"/>
<path d="M0 0 C0.99 0.33 1.98 0.66 3 1 C1.35 2.65 -0.3 4.3 -2 6 C-2.99 5.34 -3.98 4.68 -5 4 C-2.6875 1.9375 -2.6875 1.9375 0 0 Z " fill="#54353F" transform="translate(554,569)"/>
<path d="M0 0 C1.125 1.75 1.125 1.75 2 4 C1.125 6.25 1.125 6.25 0 8 C-0.66 8 -1.32 8 -2 8 C-1.125 2.25 -1.125 2.25 0 0 Z " fill="#20B392" transform="translate(306,441)"/>
<path d="M0 0 C0.66 0 1.32 0 2 0 C2 1.65 2 3.3 2 5 C0.68 5.33 -0.64 5.66 -2 6 C-2 4.68 -2 3.36 -2 2 C-1.34 2 -0.68 2 0 2 C0 1.34 0 0.68 0 0 Z " fill="#DD5077" transform="translate(690,386)"/>
<path d="M0 0 C2 1 2 1 2.75 2.8125 C3.05694702 5.49828639 2.38111722 6.7252187 1 9 C0.67 9 0.34 9 0 9 C0 6.03 0 3.06 0 0 Z " fill="#593845" transform="translate(566,502)"/>
</svg>
